<svg name="dhammachakka-logo" version="1.1" xmlns:xlink="http://www.w3.org/1999/xlink" xmlns="http://www.w3.org/2000/svg" viewBox="230 20 500 500" fill="none">
  <path fill="#ffab40" d="m301.58563 270.23856l0 0c0 -98.54405 79.88574 -178.4298 178.42981 -178.4298l0 0c47.32251 0 92.70685 18.798805 126.168884 52.26088c33.462097 33.462082 52.260925 78.846405 52.260925 126.168915l0 0c0 98.54407 -79.88574 178.42981 -178.42981 178.42981l0 0c-98.54407 0 -178.42981 -79.88574 -178.42981 -178.42981zm46.059875 0l0 0c0 73.105896 59.264038 132.36993 132.36993 132.36993c73.105896 0 132.36993 -59.264038 132.36993 -132.36993l0 0c0 -73.10588 -59.264038 -132.36992 -132.36993 -132.36992l0 0c-73.105896 0 -132.36993 59.264038 -132.36993 132.36992z" fill-rule="evenodd" />
  <path stroke="#ffab40" stroke-width="1.0" stroke-linejoin="round" stroke-linecap="butt" d="m301.58563 270.23856l0 0c0 -98.54405 79.88574 -178.4298 178.42981 -178.4298l0 0c47.32251 0 92.70685 18.798805 126.168884 52.26088c33.462097 33.462082 52.260925 78.846405 52.260925 126.168915l0 0c0 98.54407 -79.88574 178.42981 -178.42981 178.42981l0 0c-98.54407 0 -178.42981 -79.88574 -178.42981 -178.42981zm46.059875 0l0 0c0 73.105896 59.264038 132.36993 132.36993 132.36993c73.105896 0 132.36993 -59.264038 132.36993 -132.36993l0 0c0 -73.10588 -59.264038 -132.36992 -132.36993 -132.36992l0 0c-73.105896 0 -132.36993 59.264038 -132.36993 132.36992z" fill-rule="evenodd" />
  <path fill="#ffab40" d="m399.79562 270.2402l0 0c0 -44.30414 35.91562 -80.21976 80.21979 -80.21976l0 0c21.275574 0 41.67978 8.451706 56.723907 23.495834c15.044128 15.044113 23.49585 35.448334 23.49585 56.723923l0 0c0 44.30417 -35.91565 80.21976 -80.21976 80.21976l0 0c-44.30417 0 -80.21979 -35.91559 -80.21979 -80.21976zm31.470215 0l0 0c0 26.923645 21.825928 48.749573 48.749573 48.749573c26.923615 0 48.749542 -21.825928 48.749542 -48.749573c0 -26.92363 -21.825928 -48.749542 -48.749542 -48.749542l0 0c-26.923645 0 -48.749573 21.825912 -48.749573 48.749542z" fill-rule="evenodd" />
  <path stroke="#ffab40" stroke-width="1.0" stroke-linejoin="round" stroke-linecap="butt" d="m399.79562 270.2402l0 0c0 -44.30414 35.91562 -80.21976 80.21979 -80.21976l0 0c21.275574 0 41.67978 8.451706 56.723907 23.495834c15.044128 15.044113 23.49585 35.448334 23.49585 56.723923l0 0c0 44.30417 -35.91565 80.21976 -80.21976 80.21976l0 0c-44.30417 0 -80.21979 -35.91559 -80.21979 -80.21976zm31.470215 0l0 0c0 26.923645 21.825928 48.749573 48.749573 48.749573c26.923615 0 48.749542 -21.825928 48.749542 -48.749573c0 -26.92363 -21.825928 -48.749542 -48.749542 -48.749542l0 0c-26.923645 0 -48.749573 21.825912 -48.749573 48.749542z" fill-rule="evenodd" />
  <path fill="#ffab40" d="m498.86588 154.07l-9.611969 59.725235l-18.464142 0l-9.611969 -59.725235z" fill-rule="evenodd" />
  <path stroke="#ffab40" stroke-width="12.0" stroke-linejoin="round" stroke-linecap="butt" d="m498.86588 154.07l-9.611969 59.725235l-18.464142 0l-9.611969 -59.725235z" fill-rule="evenodd" />
  <path fill="#ffab40" d="m449.6729 82.306274l30.327911 -44.80466l30.32788 44.80466l-11.5842285 72.49547l-37.487335 0z" fill-rule="evenodd" />
  <path stroke="#ffab40" stroke-width="12.0" stroke-linejoin="round" stroke-linecap="butt" d="m449.6729 82.306274l30.327911 -44.80466l30.32788 44.80466l-11.5842285 72.49547l-37.487335 0z" fill-rule="evenodd" />
  <path fill="#ffab40" d="m596.1567 289.09094l-59.72528 -9.611969l0 -18.464142l59.72528 -9.611984z" fill-rule="evenodd" />
  <path stroke="#ffab40" stroke-width="12.0" stroke-linejoin="round" stroke-linecap="butt" d="m596.1567 289.09094l-59.72528 -9.611969l0 -18.464142l59.72528 -9.611984z" fill-rule="evenodd" />
  <path fill="#ffab40" d="m667.9204 239.89796l44.804626 30.327896l-44.804626 30.32788l-72.49548 -11.5842285l0 -37.48732z" fill-rule="evenodd" />
  <path stroke="#ffab40" stroke-width="12.0" stroke-linejoin="round" stroke-linecap="butt" d="m667.9204 239.89796l44.804626 30.327896l-44.804626 30.32788l-72.49548 -11.5842285l0 -37.48732z" fill-rule="evenodd" />
  <path fill="#ffab40" d="m461.15018 386.3817l9.611969 -59.72525l18.464142 0l9.611969 59.72525z" fill-rule="evenodd" />
  <path stroke="#ffab40" stroke-width="12.0" stroke-linejoin="round" stroke-linecap="butt" d="m461.15018 386.3817l9.611969 -59.72525l18.464142 0l9.611969 59.72525z" fill-rule="evenodd" />
  <path fill="#ffab40" d="m510.34314 458.14545l-30.32788 44.804657l-30.32788 -44.804657l11.584198 -72.49548l37.487335 0z" fill-rule="evenodd" />
  <path stroke="#ffab40" stroke-width="12.0" stroke-linejoin="round" stroke-linecap="butt" d="m510.34314 458.14545l-30.32788 44.804657l-30.32788 -44.804657l11.584198 -72.49548l37.487335 0z" fill-rule="evenodd" />
  <path fill="#ffab40" d="m363.84497 251.37392l59.72525 9.611954l0 18.464142l-59.72525 9.611969z" fill-rule="evenodd" />
  <path stroke="#ffab40" stroke-width="12.0" stroke-linejoin="round" stroke-linecap="butt" d="m363.84497 251.37392l59.72525 9.611954l0 18.464142l-59.72525 9.611969z" fill-rule="evenodd" />
  <path fill="#ffab40" d="m292.08124 300.56686l-44.804672 -30.32788l44.804672 -30.327896l72.49548 11.5842285l0 37.48732z" fill-rule="evenodd" />
  <path stroke="#ffab40" stroke-width="12.0" stroke-linejoin="round" stroke-linecap="butt" d="m292.08124 300.56686l-44.804672 -30.32788l44.804672 -30.327896l72.49548 11.5842285l0 37.48732z" fill-rule="evenodd" />
  <path fill="#ffab40" d="m575.4727 201.42647l-49.02838 35.43509l-13.055969 -13.056l35.43506 -49.028336z" fill-rule="evenodd" />
  <path stroke="#ffab40" stroke-width="12.0" stroke-linejoin="round" stroke-linecap="butt" d="m575.4727 201.42647l-49.02838 35.43509l-13.055969 -13.056l35.43506 -49.028336z" fill-rule="evenodd" />
  <path fill="#ffab40" d="m591.4325 115.89799l53.12622 -10.2365265l-10.236511 53.12623l-59.45276 43.070343l-26.507324 -26.507294z" fill-rule="evenodd" />
  <path stroke="#ffab40" stroke-width="12.0" stroke-linejoin="round" stroke-linecap="butt" d="m591.4325 115.89799l53.12622 -10.2365265l-10.236511 53.12623l-59.45276 43.070343l-26.507324 -26.507294z" fill-rule="evenodd" />
  <path fill="#ffab40" d="m548.7937 365.69406l-35.43512 -49.02832l13.05603 -13.056l49.02832 35.43509z" fill-rule="evenodd" />
  <path stroke="#ffab40" stroke-width="12.0" stroke-linejoin="round" stroke-linecap="butt" d="m548.7937 365.69406l-35.43512 -49.02832l13.05603 -13.056l49.02832 35.43509z" fill-rule="evenodd" />
  <path fill="#ffab40" d="m634.3222 381.65387l10.236511 53.12622l-53.12622 -10.236542l-43.070374 -59.45273l26.507324 -26.507294z" fill-rule="evenodd" />
  <path stroke="#ffab40" stroke-width="12.0" stroke-linejoin="round" stroke-linecap="butt" d="m634.3222 381.65387l10.236511 53.12622l-53.12622 -10.236542l-43.070374 -59.45273l26.507324 -26.507294z" fill-rule="evenodd" />
  <path fill="#ffab40" d="m384.53632 339.0253l49.02832 -35.43512l13.056 13.056l-35.43509 49.02835z" fill-rule="evenodd" />
  <path stroke="#ffab40" stroke-width="12.0" stroke-linejoin="round" stroke-linecap="butt" d="m384.53632 339.0253l49.02832 -35.43512l13.056 13.056l-35.43509 49.02835z" fill-rule="evenodd" />
  <path fill="#ffab40" d="m368.5765 424.55377l-53.12622 10.236511l10.236542 -53.12622l59.45273 -43.070343l26.507294 26.507294z" fill-rule="evenodd" />
  <path stroke="#ffab40" stroke-width="12.0" stroke-linejoin="round" stroke-linecap="butt" d="m368.5765 424.55377l-53.12622 10.236511l10.236542 -53.12622l59.45273 -43.070343l26.507294 26.507294z" fill-rule="evenodd" />
  <path fill="#ffab40" d="m411.1958 174.75676l35.43509 49.028336l-13.056 13.056l-49.02832 -35.435104z" fill-rule="evenodd" />
  <path stroke="#ffab40" stroke-width="12.0" stroke-linejoin="round" stroke-linecap="butt" d="m411.1958 174.75676l35.43509 49.028336l-13.056 13.056l-49.02832 -35.435104z" fill-rule="evenodd" />
  <path fill="#ffab40" d="m325.66733 158.79697l-10.236542 -53.12623l53.12625 10.2365265l43.070343 59.45275l-26.507294 26.507294z" fill-rule="evenodd" />
  <path stroke="#ffab40" stroke-width="12.0" stroke-linejoin="round" stroke-linecap="butt" d="m325.66733 158.79697l-10.236542 -53.12623l53.12625 10.2365265l43.070343 59.45275l-26.507294 26.507294z" fill-rule="evenodd" />
  <path fill="#ffab40" d="m444.3144 270.23883l0 0c0 -19.38649 15.983765 -35.102356 35.700775 -35.102356l0 0c9.468445 0 18.549072 3.6982727 25.244263 10.28125c6.6951904 6.582962 10.456512 15.511383 10.456512 24.821106l0 0c0 19.386505 -15.983765 35.102386 -35.700775 35.102386l0 0c-19.71701 0 -35.700775 -15.715881 -35.700775 -35.102386z" fill-rule="evenodd" />
  <path stroke="#ffab40" stroke-width="1.0" stroke-linejoin="round" stroke-linecap="butt" d="m444.3144 270.23883l0 0c0 -19.38649 15.983765 -35.102356 35.700775 -35.102356l0 0c9.468445 0 18.549072 3.6982727 25.244263 10.28125c6.6951904 6.582962 10.456512 15.511383 10.456512 24.821106l0 0c0 19.386505 -15.983765 35.102386 -35.700775 35.102386l0 0c-19.71701 0 -35.700775 -15.715881 -35.700775 -35.102386z" fill-rule="evenodd" />
</svg>