<svg class="clock" xmlns="http://www.w3.org/2000/svg" viewBox="0 0 9000 2750">
  <style>
    path {
      fill: red;
      stroke: none;
      opacity: 1
    }
  </style>
  <g class="hours" transform="translate(0.000000,2750.000000) scale(0.100000,-0.100000)">
    <path class="segment" d="M3369 26640 c-25 -4 -59 -15 -75 -23 -45 -24 -793 -756 -822 -806 -19 -32 -25 -58 -26 -100 0 -66 22 -114 86 -183 24 -26 516 -500 1093 -1054 823 -790 1061 -1012 1100 -1030 l50 -24 3567 0 3566 0 61 33 c50 26 264 227 1126 1055 586 563 1078 1043 1094 1066 57 83 62 162 15 242 -13 23 -190 206 -394 405 -282 278 -383 371 -427 394 l-57 30 -4955 1 c-2726 1 -4977 -2 -5002 -6z" />
    <path class="segment" d="M14574 25271 c-53 -24 -2221 -2133 -2250 -2188 -19 -37 -19 -92 -22 -3518 -2 -2493 0 -3491 8 -3520 6 -22 26 -59 43 -82 43 -55 2202 -2154 2234 -2171 42 -23 107 -17 164 15 75 40 791 740 822 803 l22 45 0 4865 0 4865 -22 47 c-15 34 -96 125 -280 315 -473 490 -481 498 -546 522 -71 26 -119 26 -173 2z" />
    <path class="segment" d="M14562 13573 c-39 -21 -326 -295 -1110 -1062 -581 -568 -1074 -1054 -1094 -1079 -20 -25 -42 -64 -48 -87 -8 -29 -10 -1002 -8 -3520 l3 -3480 24 -43 c15 -26 358 -366 875 -870 468 -455 966 -940 1106 -1079 286 -280 298 -288 388 -264 63 16 125 65 239 186 54 56 216 224 359 372 232 240 264 277 283 327 l21 57 0 4833 c0 4359 -2 4838 -16 4887 -15 52 -32 70 -382 420 -397 397 -422 417 -531 426 -48 4 -64 1 -109 -24z" />
    <path class="segment" d="M4744 3959 c-17 -5 -67 -41 -111 -81 -189 -171 -2130 -2081 -2154 -2120 -35 -55 -43 -97 -30 -146 9 -32 39 -67 149 -174 585 -573 657 -640 706 -666 l51 -27 4980 0 c4884 0 4981 0 5030 19 40 15 84 53 215 180 448 435 603 593 621 631 28 60 24 112 -13 186 -30 58 -134 163 -1098 1107 -586 573 -1085 1055 -1110 1070 l-45 27 -3580 2 c-2109 1 -3593 -2 -3611 -8z" />
    <path class="segment" d="M1905 13596 c-64 -30 -73 -39 -458 -438 -178 -185 -332 -353 -343 -375 -19 -37 -19 -137 -19 -4918 l0 -4880 27 -45 c43 -73 719 -794 775 -827 39 -22 60 -28 108 -28 86 1 129 28 275 170 1197 1167 2041 1996 2062 2028 15 21 31 56 35 76 5 20 8 1598 8 3506 l0 3470 -24 48 c-19 36 -288 306 -1111 1115 -875 860 -1097 1074 -1140 1095 -68 34 -128 35 -195 3z" />
    <path class="segment" d="M1899 25282 c-44 -23 -119 -98 -407 -407 -195 -209 -366 -400 -380 -425 l-27 -45 -3 -4864 c-1 -3216 1 -4876 8 -4901 13 -50 60 -102 439 -486 349 -353 377 -376 467 -376 103 0 73 -27 1249 1124 946 925 1096 1076 1112 1116 17 45 18 202 18 3512 0 1906 -3 3481 -8 3501 -4 20 -20 55 -35 76 -21 31 -1155 1146 -2067 2033 -182 177 -250 203 -366 142z" />
    <path class="segment" d="M4387 15319 c-21 -5 -50 -15 -65 -23 -38 -21 -1474 -1463 -1501 -1508 -30 -50 -37 -132 -17 -179 8 -20 30 -53 48 -75 18 -21 350 -351 738 -733 528 -520 715 -699 750 -715 l45 -21 3955 0 3955 0 52 30 c66 38 1460 1397 1505 1468 22 35 33 65 36 103 9 105 24 88 -780 891 -516 515 -745 737 -773 750 -38 17 -214 18 -3975 20 -2283 0 -3951 -3 -3973 -8z" />
  </g>
  <g class="hours" transform="translate(0.000000,2750.000000) scale(0.100000,-0.100000)">
    <path class="segment" d="M20163 26640 c-23 -5 -56 -16 -74 -26 -30 -15 -734 -695 -794 -766 -69 -82 -73 -174 -12 -266 12 -18 505 -498 1095 -1065 858 -825 1085 -1039 1133 -1064 l61 -33 3556 0 c2349 0 3569 4 3593 10 20 6 54 23 76 38 37 25 1928 1834 2109 2016 44 45 91 103 103 129 30 62 30 132 -1 193 -33 66 -771 787 -836 817 l-47 22 -4960 1 c-2728 1 -4979 -2 -5002 -6z" />
    <path class="segment" d="M31361 25263 c-36 -20 -361 -331 -1136 -1086 -596 -581 -1093 -1072 -1102 -1090 -17 -30 -18 -209 -20 -3532 l-3 -3500 23 -48 c18 -38 229 -249 1102 -1098 594 -578 1084 -1057 1088 -1065 16 -28 96 -66 141 -66 90 0 90 1 635 536 195 191 269 271 285 305 l21 46 0 4855 0 4855 -26 55 c-20 44 -96 128 -378 420 -313 324 -360 369 -422 403 -88 46 -135 49 -208 10z" />
    <path class="segment" d="M31387 13590 c-16 -5 -43 -20 -61 -33 -18 -14 -513 -496 -1102 -1071 -830 -811 -1075 -1057 -1097 -1097 l-27 -51 2 -3502 3 -3501 24 -38 c35 -56 2215 -2178 2259 -2199 48 -23 87 -22 141 2 60 28 68 35 463 442 284 293 356 372 377 417 l26 56 0 4855 0 4855 -23 49 c-18 40 -97 124 -383 405 -216 214 -380 367 -410 384 -53 31 -141 44 -192 27z" />
    <path class="segment" d="M21539 3956 c-19 -7 -45 -19 -56 -27 -11 -8 -507 -490 -1102 -1073 -786 -768 -1090 -1072 -1111 -1110 -37 -63 -39 -117 -7 -167 12 -19 195 -204 407 -410 282 -275 398 -381 435 -399 l50 -25 4985 0 4985 0 50 25 c64 32 786 734 818 795 13 26 21 58 20 92 -1 113 42 68 -1114 1199 -584 571 -1080 1051 -1102 1066 -22 15 -56 32 -76 38 -24 6 -1242 10 -3591 10 -2861 -1 -3562 -3 -3591 -14z" />
    <path class="segment" d="M18692 13594 c-41 -22 -131 -108 -400 -387 -191 -198 -359 -377 -374 -399 -15 -21 -32 -63 -38 -91 -7 -37 -9 -1481 -8 -4882 l3 -4830 23 -47 c15 -30 127 -159 304 -350 460 -497 473 -509 565 -524 54 -8 113 10 171 54 27 20 530 507 1117 1082 890 871 1072 1053 1091 1095 l24 50 0 3486 0 3487 -27 51 c-39 71 -2172 2167 -2241 2202 -72 36 -145 37 -210 3z" />
    <path class="segment" d="M18704 25287 c-23 -12 -54 -33 -70 -47 -47 -41 -678 -721 -711 -768 -22 -30 -35 -63 -43 -110 -8 -50 -10 -1299 -8 -4882 l3 -4815 22 -48 c34 -73 726 -777 799 -813 69 -34 129 -34 197 0 77 37 2222 2134 2254 2204 l23 47 -3 3495 c-2 3398 -3 3496 -21 3533 -12 24 -340 352 -895 895 -482 471 -974 952 -1093 1070 -166 162 -230 218 -270 237 -67 31 -129 32 -184 2z" />
    <path class="segment" d="M21190 15321 c-19 -4 -51 -15 -70 -25 -48 -25 -1468 -1455 -1502 -1514 -21 -36 -28 -60 -28 -102 0 -86 34 -133 233 -326 96 -93 420 -411 720 -707 422 -416 557 -543 594 -560 l48 -22 3920 -3 c2756 -1 3935 1 3972 8 28 6 69 23 91 38 36 25 1263 1217 1410 1370 35 36 73 84 85 107 29 54 28 135 -2 195 -31 62 -1456 1488 -1521 1522 l-45 23 -3935 1 c-2164 1 -3951 -1 -3970 -5z" />
  </g>
  <g transform="translate(0.000000,2750.000000) scale(0.100000,-0.100000)">
    <path class="separator" d="M34979 21296 c-58 -21 -96 -53 -121 -104 l-23 -47 -3 -1420 c-2 -1015 0 -1435 8 -1472 16 -73 56 -124 121 -154 l54 -24 1440 0 c792 0 1461 4 1486 8 66 11 123 52 156 111 l28 51 3 1424 c3 1557 5 1490 -54 1561 -15 17 -45 41 -68 53 l-41 22 -1475 2 c-1188 2 -1482 0 -1511 -11z" />
    <path class="separator" d="M35025 10853 c-87 -20 -133 -52 -168 -117 l-22 -41 0 -1475 0 -1475 22 -41 c28 -53 72 -90 126 -106 33 -10 347 -13 1502 -13 l1460 0 56 28 c65 31 103 79 118 147 15 65 15 2851 0 2920 -15 71 -63 130 -124 155 -49 20 -71 20 -1500 21 -797 1 -1459 0 -1470 -3z" />
  </g>
  <g class="minutes" transform="translate(0.000000,2750.000000) scale(0.100000,-0.100000)">
    <path class="segment" d="M42729 26640 c-25 -4 -60 -15 -77 -24 -44 -23 -789 -753 -817 -801 -55 -94 -42 -171 44 -270 31 -36 528 -518 1105 -1071 835 -801 1059 -1011 1100 -1030 l51 -24 3567 0 3566 0 61 33 c49 26 270 234 1133 1063 1168 1123 1131 1084 1131 1193 0 101 11 88 -470 558 -254 247 -355 340 -390 356 l-48 22 -4955 1 c-2725 1 -4976 -2 -5001 -6z" />
    <path class="segment" d="M53933 25271 c-27 -12 -120 -96 -250 -223 -115 -112 -607 -591 -1095 -1066 -756 -737 -889 -870 -907 -912 l-21 -49 0 -3483 c0 -3478 0 -3483 21 -3528 12 -27 54 -77 109 -130 48 -47 548 -533 1110 -1080 561 -547 1033 -1001 1047 -1008 42 -22 107 -17 163 14 34 18 172 146 415 383 200 196 376 371 389 390 14 18 30 57 36 85 7 35 9 1525 8 4886 l-3 4835 -22 47 c-20 43 -317 361 -678 724 -122 123 -226 160 -322 115z" />
    <path class="segment" d="M53925 13577 c-39 -19 -293 -262 -1125 -1077 -591 -579 -1088 -1073 -1105 -1098 l-30 -46 -3 -3494 -2 -3493 21 -49 c18 -43 176 -200 1111 -1112 599 -585 1107 -1076 1129 -1093 33 -24 50 -30 92 -30 102 1 97 -4 611 528 207 214 293 310 309 345 l22 47 3 4847 2 4847 -21 58 c-19 55 -42 80 -384 419 -251 248 -380 369 -415 388 -74 40 -150 45 -215 13z" />
    <path class="segment" d="M44098 3956 c-20 -7 -57 -31 -81 -52 -144 -128 -2166 -2120 -2184 -2151 -29 -52 -37 -104 -24 -146 8 -24 61 -83 169 -189 557 -547 640 -624 687 -648 l50 -25 4985 0 4985 0 48 22 c35 16 136 109 386 353 187 182 362 355 390 386 79 86 89 160 36 264 -19 38 -264 283 -1090 1092 -875 857 -1076 1049 -1126 1076 l-61 32 -3566 0 c-2925 -1 -3574 -3 -3604 -14z" />
    <path class="segment" d="M41263 13599 c-23 -12 -69 -46 -102 -77 -128 -122 -681 -703 -698 -734 -17 -32 -18 -242 -21 -4908 l-2 -4875 25 -50 c31 -64 705 -793 772 -835 81 -52 167 -49 251 7 37 25 1360 1312 1964 1911 199 197 251 254 265 291 17 44 18 217 18 3526 l0 3480 -24 47 c-36 71 -2179 2175 -2253 2212 -64 32 -135 34 -195 5z" />
    <path class="segment" d="M41262 25284 c-55 -27 -103 -76 -546 -554 -144 -155 -235 -262 -251 -294 l-25 -50 0 -4855 c0 -3233 3 -4868 10 -4892 6 -20 23 -53 39 -73 16 -20 186 -195 377 -389 373 -378 398 -399 490 -399 101 0 73 -25 1242 1118 826 807 1094 1076 1113 1112 l24 47 0 3480 c0 3759 4 3517 -53 3587 -15 18 -441 438 -947 932 -506 495 -990 968 -1075 1051 -214 210 -278 239 -398 179z" />
    <path class="segment" d="M43747 15319 c-21 -5 -50 -15 -65 -23 -15 -8 -356 -345 -758 -748 -553 -554 -736 -744 -753 -779 -37 -79 -25 -155 35 -230 16 -19 348 -349 738 -733 538 -531 720 -703 755 -720 l46 -21 3951 0 3950 0 57 30 c44 23 187 157 634 595 870 851 867 848 893 905 28 62 23 134 -14 197 -38 65 -1472 1493 -1521 1515 -38 17 -214 18 -3975 20 -2283 0 -3951 -3 -3973 -8z" />
  </g>
  <g class="minutes" transform="translate(0.000000,2750.000000) scale(0.100000,-0.100000)">
    <path class="segment" d="M59523 26640 c-23 -5 -56 -16 -74 -26 -29 -15 -602 -565 -757 -727 -70 -74 -92 -116 -92 -180 0 -100 -30 -69 1131 -1185 871 -837 1091 -1043 1140 -1070 l61 -32 3576 2 3577 3 44 25 c58 32 2163 2052 2216 2125 34 48 40 64 43 119 7 107 -3 119 -432 538 -272 266 -393 377 -426 392 l-45 21 -4960 1 c-2728 1 -4979 -2 -5002 -6z" />
    <path class="segment" d="M70721 25263 c-36 -20 -299 -270 -913 -868 -1264 -1231 -1308 -1275 -1329 -1320 -18 -39 -19 -163 -19 -3532 l0 -3492 22 -45 c16 -35 264 -282 1031 -1028 555 -541 1051 -1025 1103 -1076 105 -102 141 -125 194 -125 69 0 124 36 268 174 306 296 635 626 648 651 7 14 18 57 24 95 7 47 10 1564 8 4873 l-3 4805 -26 55 c-19 42 -73 104 -224 260 -486 502 -527 541 -590 571 -77 37 -127 37 -194 2z" />
    <path class="segment" d="M70722 13579 c-28 -14 -414 -384 -1130 -1085 -881 -862 -1091 -1072 -1109 -1111 l-23 -48 0 -3490 c0 -3371 1 -3491 19 -3530 21 -46 67 -92 1344 -1335 535 -521 903 -872 925 -882 64 -30 124 -18 199 40 27 20 207 200 401 400 278 288 357 375 379 420 l28 57 3 4805 c2 3309 -1 4826 -8 4873 -6 38 -17 82 -25 97 -24 47 -730 742 -786 774 -69 40 -157 46 -217 15z" />
    <path class="segment" d="M60898 3956 c-21 -8 -48 -21 -60 -29 -45 -32 -2173 -2123 -2201 -2164 -37 -53 -47 -125 -23 -172 10 -18 115 -128 234 -244 595 -582 575 -563 627 -583 49 -19 137 -19 5030 -19 l4980 0 49 25 c64 32 789 736 818 795 28 53 26 131 -3 193 -29 60 -64 95 -1231 1236 -581 567 -964 934 -990 948 l-43 23 -3575 2 c-2964 2 -3581 0 -3612 -11z" />
    <path class="segment" d="M58053 13595 c-73 -37 -743 -728 -788 -812 l-30 -57 0 -4860 0 -4861 23 -48 c16 -31 144 -176 367 -417 189 -204 356 -381 372 -394 98 -81 200 -84 301 -8 27 20 531 508 1119 1084 918 898 1073 1055 1092 1097 l21 50 0 3473 c0 2306 -4 3485 -10 3509 -6 20 -25 55 -43 77 -17 23 -455 456 -973 964 -1240 1217 -1203 1181 -1249 1203 -66 31 -141 31 -202 0z" />
    <path class="segment" d="M58067 25290 c-59 -29 -78 -48 -444 -442 -230 -248 -353 -388 -367 -418 l-21 -45 -3 -4830 c-2 -3668 0 -4843 9 -4885 6 -30 21 -68 32 -85 12 -16 180 -193 375 -392 290 -298 364 -367 409 -389 68 -33 125 -34 190 -3 57 27 -14 -40 1237 1182 751 734 998 980 1019 1019 l27 50 0 3485 0 3484 -21 50 c-19 42 -174 198 -1092 1097 -589 576 -1087 1060 -1106 1076 -82 66 -171 83 -244 46z" />
    <path class="segment" d="M60543 15320 c-17 -4 -51 -19 -75 -33 -57 -33 -1468 -1459 -1497 -1512 -30 -57 -29 -133 5 -195 18 -33 164 -184 467 -482 1059 -1040 1009 -993 1062 -1014 49 -19 133 -19 3990 -19 3832 0 3941 1 3989 19 41 16 152 120 760 714 391 383 724 712 739 731 47 58 60 92 60 151 0 37 -7 70 -22 100 -31 62 -1456 1488 -1521 1521 l-45 24 -3940 2 c-2167 0 -3954 -2 -3972 -7z" />
  </g>
  <g class="seconds" transform="translate(0.000000,2750.000000) scale(0.100000,-0.100000)">
    <path class="segment" d="M75035 26721 c-29 -12 -383 -359 -401 -392 -17 -34 -18 -60 -3 -92 11 -24 962 -950 1042 -1014 l40 -33 1711 0 c1660 0 1712 1 1741 19 37 23 1023 975 1047 1010 10 14 18 42 18 61 0 19 -8 46 -18 60 -25 36 -363 365 -389 379 -26 13 -4755 15 -4788 2z" />
    <path class="segment" d="M80301 25987 c-525 -508 -966 -947 -977 -974 -12 -27 -14 -315 -14 -1681 0 -1187 3 -1658 11 -1681 8 -22 179 -196 538 -547 289 -284 536 -521 548 -526 12 -6 33 -8 48 -4 30 8 389 347 411 388 12 23 14 367 14 2360 -1 1811 -3 2338 -13 2355 -20 36 -348 373 -378 388 -61 32 -84 22 -188 -78z" />
    <path class="segment" d="M80398 20477 c-41 -18 -1058 -1026 -1074 -1064 -21 -48 -21 -3318 0 -3366 16 -38 1053 -1057 1090 -1071 16 -6 34 -5 55 4 31 13 378 366 399 407 9 16 12 615 12 2353 0 2004 -2 2335 -14 2358 -17 32 -342 355 -371 370 -37 18 -70 21 -97 9z" />
    <path class="segment" d="M75718 15866 c-28 -10 -173 -146 -562 -531 -533 -524 -548 -541 -531 -594 8 -26 382 -390 412 -402 36 -13 4744 -12 4780 2 28 10 352 321 385 369 21 29 23 85 5 117 -7 13 -244 250 -527 528 -403 396 -521 507 -549 515 -23 6 -633 10 -1706 10 -1366 -1 -1677 -3 -1707 -14z" />
    <path class="segment" d="M74182 20313 c-96 -98 -182 -191 -193 -208 -18 -29 -19 -85 -19 -2365 0 -2296 0 -2335 20 -2365 10 -16 95 -111 188 -210 186 -199 207 -213 273 -181 19 9 270 250 559 535 l525 518 3 1664 c1 915 0 1678 -3 1695 -4 24 -110 136 -508 532 -276 275 -519 514 -541 531 -30 24 -49 31 -85 31 l-46 0 -173 -177z" />
    <path class="segment" d="M74336 26060 c-48 -43 -338 -358 -353 -384 -10 -16 -12 -543 -13 -2354 0 -2006 2 -2337 14 -2360 8 -15 95 -107 193 -205 196 -195 215 -207 280 -170 29 16 1012 976 1058 1033 20 24 20 41 23 1700 2 1583 1 1677 -15 1705 -20 34 -1032 1033 -1066 1052 -39 22 -84 15 -121 -17z" />
    <path class="segment" d="M75525 21300 c-11 -4 -180 -169 -376 -367 -371 -373 -380 -383 -358 -442 11 -28 611 -636 692 -702 l49 -39 1891 0 c1839 0 1893 1 1921 19 15 10 183 173 372 362 364 362 369 369 344 434 -14 37 -682 709 -726 730 -28 13 -243 15 -1911 14 -1033 0 -1887 -4 -1898 -9z" />
  </g>
  <g class="seconds" transform="translate(0.000000,2750.000000) scale(0.100000,-0.100000)">
    <path class="segment" d="M83031 26719 c-30 -12 -378 -354 -397 -391 -17 -33 -18 -59 -2 -92 11 -26 1009 -996 1057 -1028 24 -17 126 -18 1736 -18 1322 1 1715 3 1732 13 22 12 914 869 1016 975 51 54 57 65 57 103 0 42 -3 46 -187 232 -104 104 -200 195 -215 203 -23 12 -366 14 -2400 13 -1501 0 -2382 -4 -2397 -10z" />
    <path class="segment" d="M88252 25941 c-81 -77 -325 -315 -542 -529 l-395 -389 -2 -1679 c-2 -1321 0 -1684 10 -1703 19 -38 1067 -1061 1093 -1067 12 -3 33 -3 45 1 25 8 386 354 406 389 17 30 19 4677 1 4709 -22 42 -353 380 -385 393 -65 28 -75 23 -231 -125z" />
    <path class="segment" d="M88395 20475 c-16 -7 -266 -247 -555 -532 l-525 -520 -3 -1654 c-2 -910 0 -1673 3 -1696 6 -40 31 -67 543 -568 295 -289 546 -528 559 -531 13 -4 36 -1 52 6 30 12 378 367 399 407 9 16 12 601 12 2353 0 2004 -2 2335 -14 2358 -17 32 -342 355 -371 370 -38 18 -70 21 -100 7z" />
    <path class="segment" d="M83717 15866 c-27 -10 -159 -134 -510 -479 -259 -255 -498 -492 -529 -525 -92 -96 -95 -90 135 -319 105 -105 205 -196 220 -202 20 -8 741 -11 2393 -11 1996 0 2370 2 2397 14 18 8 114 97 215 198 174 176 182 186 182 224 0 21 -8 51 -18 65 -9 15 -246 252 -526 527 -452 444 -514 502 -552 511 -30 8 -550 11 -1706 11 -1363 -1 -1670 -3 -1701 -14z" />
    <path class="segment" d="M82181 20313 c-95 -98 -182 -191 -192 -208 -18 -29 -19 -97 -19 -2365 1 -1813 3 -2340 13 -2357 24 -42 360 -394 385 -404 67 -25 62 -29 622 522 345 340 532 531 539 551 8 22 11 532 11 1685 0 1418 -2 1658 -14 1681 -14 25 -800 813 -988 990 -84 79 -89 82 -135 82 l-48 0 -174 -177z" />
    <path class="segment" d="M82325 26049 c-61 -56 -327 -346 -342 -372 -10 -17 -12 -544 -13 -2355 0 -2006 2 -2337 14 -2360 8 -15 96 -108 195 -207 179 -178 182 -180 225 -180 35 0 51 7 87 37 24 21 269 260 544 531 l500 494 3 1677 c2 1440 0 1681 -12 1704 -15 29 -1021 1025 -1066 1055 -43 29 -85 22 -135 -24z" />
    <path class="segment" d="M83513 21293 c-17 -10 -186 -176 -376 -368 -366 -373 -374 -383 -343 -442 16 -30 674 -689 716 -717 22 -15 182 -16 1916 -16 l1892 0 49 39 c26 21 193 184 370 362 218 219 324 333 329 353 4 17 1 39 -7 56 -20 40 -702 728 -734 740 -17 7 -669 10 -1903 10 -1769 0 -1879 -1 -1909 -17z" />
  </g>
  <g class="periods" transform="translate(0.000000,2750.000000) scale(0.100000,-0.100000)">
    <path class="segment1" d="M74377 12585 c-21 -7 -40 -15 -41 -17 -26 -34 -36 -60 -36 -93 -1 -40 1 -42 647 -683 356 -354 662 -652 678 -663 29 -18 69 -19 1630 -19 l1600 0 662 663 c448 448 664 671 669 690 14 59 -20 113 -81 127 -24 6 -1165 9 -2865 9 -2360 0 -2831 -2 -2863 -14z" />
    <path class="segment2" d="M80322 12286 c-40 -22 -1283 -1289 -1298 -1323 -12 -27 -14 -279 -14 -1611 0 -1081 3 -1589 11 -1609 6 -19 151 -169 397 -410 645 -631 618 -606 654 -599 23 5 77 51 202 174 94 92 179 178 188 192 17 24 18 166 18 2568 0 2337 -1 2546 -16 2572 -32 53 -94 73 -142 46z" />
    <path class="segment3" d="M79532 6158 c-281 -281 -500 -507 -508 -525 -12 -27 -14 -306 -14 -1778 l0 -1746 417 -422 c230 -232 521 -527 648 -655 248 -251 272 -268 334 -242 17 7 40 27 51 45 20 32 20 41 18 2739 l-3 2706 -170 171 c-93 94 -182 177 -197 185 -65 34 -47 49 -576 -478z" />
    <path class="segment4" d="M74384 6650 c-11 -4 -97 -89 -191 -188 -170 -179 -171 -181 -178 -234 -3 -29 -5 -1248 -3 -2708 3 -2898 -1 -2694 59 -2726 34 -17 57 -17 87 -1 13 8 315 305 673 662 l649 650 0 1758 c0 1508 -2 1762 -14 1785 -18 33 -972 985 -1003 1001 -25 13 -49 13 -79 1z" />
    <path class="segment5" d="M74068 12283 c-57 -35 -53 137 -56 -2594 -2 -2009 0 -2534 10 -2563 9 -24 69 -95 181 -211 182 -189 204 -203 263 -171 32 17 982 947 1001 980 10 16 12 385 13 1624 0 1374 -2 1607 -14 1630 -18 33 -1282 1295 -1313 1311 -30 15 -53 13 -85 -6z" />
    <path class="segment6" d="M75485 7429 c-29 -8 -128 -104 -537 -524 -80 -82 -151 -160 -157 -172 -6 -12 -11 -36 -11 -53 0 -28 38 -71 330 -370 181 -185 342 -343 357 -349 21 -8 493 -11 1796 -9 l1767 3 345 345 c321 322 345 348 345 380 0 19 -8 47 -18 61 -9 14 -161 173 -336 353 -253 258 -327 328 -355 336 -46 13 -3483 12 -3526 -1z" />
    <path class="segment7" d="M81810 12597 c-39 -20 -64 -75 -56 -122 7 -36 60 -92 569 -595 309 -305 608 -599 664 -653 l101 -97 2083 0 2084 0 648 648 c684 684 688 688 665 753 -5 14 -20 37 -34 50 l-26 24 -3336 2 c-2670 2 -3342 0 -3362 -10z" />
    <path class="segment8" d="M88723 12305 c-19 -8 -210 -193 -455 -442 -232 -235 -525 -532 -650 -659 l-228 -230 0 -1614 0 -1615 493 -493 c270 -271 505 -500 521 -509 59 -31 81 -17 268 178 95 99 178 192 185 207 9 21 12 607 13 2560 0 2745 4 2568 -52 2604 -38 25 -61 28 -95 13z" />
    <path class="segment9" d="M88420 6673 c-17 -3 -192 -171 -527 -506 l-503 -502 0 -1780 0 -1780 648 -648 c356 -357 659 -655 674 -663 36 -19 64 -18 99 3 64 38 59 -185 59 2778 0 2311 -2 2700 -14 2723 -17 33 -358 372 -373 372 -6 0 -17 2 -25 4 -7 2 -24 1 -38 -1z" />
    <path class="segment10" d="M81835 6665 c-16 -7 -110 -93 -207 -192 l-178 -179 0 -2713 c0 -2989 -5 -2752 61 -2787 73 -37 47 -59 747 639 354 353 650 654 658 669 12 23 14 278 13 1780 0 964 -3 1760 -7 1769 -8 19 -957 983 -986 1002 -34 22 -69 27 -101 12z" />
    <path class="segment11" d="M81524 12306 c-17 -8 -40 -26 -52 -41 l-22 -28 0 -2554 0 -2554 57 -62 c31 -34 116 -122 187 -194 141 -144 167 -159 222 -130 34 18 987 972 1003 1004 8 16 11 473 11 1616 l0 1594 -22 29 c-57 74 -1286 1308 -1315 1320 -38 16 -31 16 -69 0z" />
    <path class="segment12" d="M84430 10902 c-19 -9 -40 -28 -47 -42 -10 -20 -13 -413 -12 -1865 0 -1717 1 -1842 17 -1870 9 -16 168 -180 353 -362 357 -354 366 -361 425 -330 43 23 691 677 704 710 7 19 10 607 10 1853 0 1579 -2 1829 -15 1860 -27 66 -10 64 -742 64 -606 0 -661 -1 -693 -18z" />
  </g>
</svg>
