<svg name="sammapanna-name" version="1.0" xmlns="http://www.w3.org/2000/svg" viewBox="0 0 9650.000000 997.000000">
  <g transform="translate(0.000000,997.000000) scale(0.100000,-0.100000)">
    <path fill="#009579" d="M2857 9849 c-342 -20 -793 -133 -1116 -277 -455 -205 -878 -549 -1163 -947 -289 -404 -449 -795 -519 -1270 -62 -423 -44 -990 46 -1388 99 -443 334 -890 663 -1261 242 -273 614 -546 954 -698 353 -159 780 -265 1158 -288 100 -6 918 -10 2065 -10 1638 0 1910 -2 1970 -15 222 -47 341 -193 376 -463 23 -168 -32 -376 -125 -479 -45 -50 -135 -99 -223 -121 -63 -15 -320 -17 -3293 -22 l-3225 -5 -70 -34 c-116 -57 -201 -152 -239 -267 -15 -45 -16 -134 -14 -965 l3 -914 34 -70 c42 -84 96 -144 170 -189 119 -72 -198 -67 3462 -63 3044 2 3302 4 3405 20 517 80 900 219 1314 480 579 364 952 847 1178 1522 118 353 159 662 149 1129 -3 150 -12 314 -21 385 -65 497 -254 976 -535 1361 -435 595 -1137 1027 -1926 1184 -260 52 -147 50 -2340 56 -2256 6 -2089 1 -2223 69 -143 72 -222 241 -222 476 0 244 89 423 246 497 131 62 -51 58 3017 58 1853 0 2817 4 2846 11 159 36 295 167 336 324 23 89 23 1761 0 1850 -42 160 -188 294 -354 325 -64 12 -5585 11 -5784 -1z" />
    <path fill="#009579" d="M14255 8403 c-490 -39 -732 -84 -1105 -205 -920 -300 -1683 -899 -2165 -1700 -269 -447 -460 -967 -540 -1475 -51 -321 -48 -218 -52 -2477 -4 -2082 -3 -2110 16 -2168 41 -120 151 -223 264 -248 37 -8 278 -10 817 -8 l765 3 59 30 c78 40 138 100 178 183 l33 67 5 767 c4 611 8 770 18 780 19 19 3995 19 4014 0 10 -10 14 -169 18 -780 5 -699 7 -771 22 -811 44 -109 157 -209 261 -231 37 -7 291 -10 818 -8 l764 3 59 30 c78 40 138 100 178 183 l33 67 0 3555 0 3555 -22 84 c-112 418 -430 717 -846 796 -69 13 -306 15 -1816 13 -955 -1 -1754 -3 -1776 -5z m2305 -3213 l0 -1070 -2006 0 -2007 0 6 238 c7 300 35 480 109 687 39 112 135 300 209 410 88 133 271 320 404 413 99 70 341 192 475 241 191 68 432 122 620 140 52 4 566 9 1143 10 l1047 1 0 -1070z" />
    <path fill="#009579" d="M20480 8510 c-313 -32 -593 -207 -771 -483 -61 -95 -105 -195 -142 -327 l-22 -75 -3 -3579 c-3 -3912 -6 -3639 53 -3741 35 -59 105 -122 173 -153 l57 -27 790 0 790 0 60 29 c76 38 143 105 181 181 l29 60 5 1520 c3 1045 8 1526 16 1538 10 17 11 17 26 0 9 -10 391 -670 848 -1468 458 -797 856 -1486 885 -1530 142 -215 395 -378 658 -424 31 -6 66 -15 76 -21 25 -13 236 -13 260 -1 10 6 60 19 112 29 244 51 465 185 601 363 31 41 435 738 898 1549 463 811 850 1484 861 1494 10 11 22 16 26 12 4 -4 10 -692 13 -1529 l5 -1522 27 -57 c29 -63 95 -139 149 -174 88 -55 80 -55 920 -52 l774 3 60 29 c76 38 143 105 181 181 l29 60 3 3590 c2 3221 1 3599 -13 3674 -77 410 -409 749 -819 837 -39 9 -120 18 -181 21 -389 19 -746 -154 -949 -460 -30 -45 -669 -1146 -1421 -2447 -752 -1301 -1376 -2374 -1386 -2385 -19 -19 -19 -19 -38 0 -11 11 -635 1084 -1386 2385 -752 1301 -1391 2402 -1421 2446 -104 158 -290 310 -465 381 -156 63 -372 92 -549 73z" />
    <path fill="#009579" d="M30875 8510 c-405 -40 -751 -320 -884 -713 -16 -47 -34 -119 -41 -159 -8 -54 -10 -1028 -8 -3659 l3 -3585 34 -67 c40 -80 94 -132 176 -173 l60 -29 790 0 790 0 57 27 c116 54 198 161 218 284 6 36 10 619 11 1509 0 798 3 1467 7 1488 l7 39 21 -24 c12 -12 399 -680 859 -1483 461 -803 854 -1485 874 -1515 61 -94 195 -220 302 -284 102 -60 252 -119 334 -131 28 -4 66 -14 86 -22 49 -19 250 -12 339 11 144 39 238 70 295 98 161 81 311 209 392 335 19 30 410 712 869 1516 459 804 841 1469 849 1477 40 40 40 53 45 -1538 l5 -1527 25 -49 c39 -78 103 -141 178 -178 l67 -33 795 0 795 0 67 33 c75 37 139 100 178 178 l25 49 3 3605 c2 3271 1 3612 -14 3685 -44 222 -189 460 -370 606 -208 169 -451 248 -729 236 -141 -6 -233 -24 -355 -71 -193 -72 -376 -217 -488 -385 -31 -47 -676 -1156 -1432 -2465 -756 -1308 -1381 -2381 -1388 -2384 -8 -2 -22 4 -31 14 -10 10 -631 1081 -1381 2379 -750 1298 -1383 2392 -1408 2430 -152 238 -391 402 -672 460 -87 18 -256 25 -355 15z" />
    <path fill="#009579" d="M44040 8403 c-655 -49 -1139 -177 -1665 -443 -385 -193 -691 -410 -994 -704 -573 -557 -974 -1326 -1125 -2156 -64 -354 -61 -230 -61 -2576 l0 -2130 34 -67 c40 -80 94 -132 176 -173 l60 -29 790 0 790 0 56 26 c95 45 167 122 207 223 15 36 17 125 22 803 4 607 8 765 18 775 19 19 3995 19 4014 0 10 -10 14 -170 18 -785 l5 -772 28 -56 c40 -83 96 -140 173 -180 l68 -34 790 0 791 0 57 27 c113 53 195 158 218 277 14 75 14 6885 0 7035 -39 402 -324 760 -713 892 -166 56 -81 54 -1971 52 -957 -1 -1761 -3 -1786 -5z m2320 -3213 l0 -1070 -2010 0 -2010 0 0 88 c0 133 19 396 36 502 42 266 145 528 296 753 73 109 266 308 383 393 156 115 461 254 685 313 337 88 337 88 1568 90 l1052 1 0 -1070z" />
    <path fill="#222222" d="M51926 9939 c-229 -15 -500 -70 -752 -154 -566 -189 -1060 -564 -1370 -1041 -227 -351 -340 -645 -411 -1074 -16 -98 -17 -345 -20 -3694 -3 -3295 -2 -3594 13 -3640 47 -147 138 -238 307 -307 l72 -29 885 0 885 0 71 29 c160 65 248 147 301 281 17 42 18 114 23 977 4 708 8 935 17 944 9 9 28 9 82 1 90 -15 3713 -17 3966 -2 208 12 325 25 475 51 555 98 1103 332 1547 660 323 239 627 569 823 893 289 480 443 988 480 1586 13 212 13 1081 0 1270 -47 671 -257 1277 -638 1835 -157 230 -308 407 -487 567 -349 315 -706 519 -1184 678 -325 108 -571 152 -954 170 -246 12 -3949 11 -4131 -1z m4039 -2579 c131 -15 199 -34 302 -86 238 -119 380 -337 453 -696 20 -97 21 -127 18 -583 -4 -460 -5 -483 -26 -560 -77 -278 -269 -468 -570 -565 -211 -68 -55 -63 -2192 -69 -1516 -5 -1941 -9 -1963 -18 -16 -7 -30 -13 -33 -13 -8 0 -3 2476 6 2514 11 50 26 64 81 75 64 13 3812 13 3924 1z" />
    <path fill="#222222" d="M63905 8574 c-450 -36 -736 -91 -1104 -214 -879 -292 -1621 -848 -2103 -1576 -330 -498 -551 -1058 -647 -1639 -58 -344 -55 -225 -58 -2554 -3 -1937 -2 -2149 12 -2199 21 -70 50 -116 111 -172 58 -54 119 -86 193 -100 72 -13 1479 -14 1551 0 79 15 138 48 206 115 43 43 68 77 85 120 l24 60 5 777 c4 619 8 780 18 790 19 19 4095 19 4114 0 10 -10 14 -173 18 -800 l5 -787 28 -58 c55 -110 165 -194 286 -217 77 -14 1483 -14 1553 1 154 32 279 157 308 308 14 75 14 7035 0 7184 -24 248 -144 493 -331 674 -117 112 -281 206 -454 260 l-90 28 -1845 1 c-1015 0 -1863 -1 -1885 -2z m2405 -3279 l0 -1095 -2056 0 -2057 0 6 243 c9 412 63 642 223 946 89 169 168 275 304 411 150 150 265 230 470 329 310 149 588 224 925 250 61 4 577 9 1148 10 l1037 1 0 -1095z" />
    <path fill="#222222" d="M70230 8671 c-149 -33 -308 -106 -425 -194 -210 -159 -363 -392 -421 -642 -18 -77 -19 -199 -19 -3750 l0 -3670 24 -60 c17 -43 42 -77 85 -120 68 -67 127 -100 206 -115 72 -14 1479 -13 1551 0 74 14 135 46 193 100 60 56 90 101 110 170 14 48 16 275 16 2256 0 1396 4 2212 10 2228 6 17 15 24 24 20 8 -3 988 -1014 2178 -2247 1190 -1233 2201 -2279 2248 -2325 137 -135 277 -218 450 -267 52 -15 110 -33 128 -41 46 -20 358 -20 404 0 18 7 74 26 123 41 165 50 323 145 449 270 161 159 272 372 305 586 9 55 11 1007 9 3734 l-3 3660 -28 58 c-37 74 -110 147 -184 184 l-58 28 -795 3 c-592 2 -806 0 -838 -9 -106 -29 -207 -124 -254 -239 l-23 -55 -5 -2232 c-3 -1227 -8 -2235 -13 -2239 -4 -4 -19 1 -32 12 -14 10 -897 921 -1961 2024 -2420 2506 -2490 2578 -2572 2640 -93 70 -248 144 -367 176 -136 36 -385 44 -515 15z" />
    <path fill="#222222" d="M79616 8674 c-367 -73 -687 -344 -822 -696 -69 -181 -64 120 -64 -3903 0 -3600 0 -3643 20 -3699 26 -78 79 -147 145 -191 113 -74 55 -70 893 -73 484 -2 773 1 809 8 134 24 247 120 301 254 16 38 17 221 22 2278 3 1230 8 2240 13 2244 4 4 18 -1 32 -12 14 -10 1008 -1038 2209 -2284 1202 -1246 2219 -2295 2261 -2332 107 -94 224 -159 364 -203 64 -20 130 -42 146 -48 17 -6 104 -13 198 -15 146 -2 176 0 230 17 34 11 98 31 143 46 82 26 220 99 305 161 77 56 221 215 272 301 56 94 99 196 130 308 l22 80 0 3690 0 3690 -27 57 c-37 80 -107 152 -187 191 l-66 32 -796 3 c-789 2 -798 2 -853 -19 -102 -38 -194 -128 -233 -229 -17 -42 -18 -177 -23 -2282 -3 -1230 -8 -2239 -11 -2242 -3 -4 -14 -4 -23 0 -9 3 -1019 1044 -2245 2313 -1226 1268 -2253 2324 -2282 2347 -135 103 -301 177 -472 209 -98 19 -316 18 -411 -1z" />
    <path fill="#222222" d="M91865 8574 c-245 -20 -449 -47 -627 -83 -633 -131 -1270 -428 -1769 -827 -819 -654 -1353 -1626 -1484 -2701 -34 -283 -36 -428 -33 -2503 l3 -2055 27 -58 c54 -114 167 -204 287 -227 72 -13 1479 -14 1551 0 79 15 138 48 206 115 43 43 68 77 85 120 l24 60 5 777 c4 619 8 780 18 790 19 19 4095 19 4114 0 10 -10 14 -172 18 -795 5 -713 7 -786 22 -826 40 -98 131 -186 238 -228 41 -17 105 -18 802 -21 840 -3 841 -3 941 61 97 63 157 150 177 258 7 37 9 1244 7 3645 l-2 3589 -22 80 c-108 399 -378 680 -768 802 l-90 28 -1845 1 c-1015 0 -1863 -1 -1885 -2z m2405 -3279 l0 -1095 -2056 0 -2057 0 6 238 c7 298 34 478 103 680 41 121 145 327 225 447 88 133 270 319 404 414 101 71 358 200 510 256 195 72 448 126 680 144 61 4 577 9 1148 10 l1037 1 0 -1095z" />
  </g>
</svg>
