<svg xmlns="http://www.w3.org/2000/svg" viewBox="0 0 512.001 512.001">
    <path fill="#CAD1D8" d="M24,16h464c13.254,0,24,10.745,24,24v432c0,13.254-10.745,24-24,24H24C10.745,496,0,485.255,0,472V40C0,26.745,10.745,16,24,16z" />
    <circle fill="#9BA7AaF" cx="24.002" cy="47.995" r="7.998" />
    <circle fill="#9BA7AF" cx="56.002" cy="47.995" r="7.998" />
    <circle fill="#9BA7AF" cx="88.002" cy="47.995" r="7.998" />
    <path fill="#FFFFFF" d="M24,80h464c4.418,0,8,3.582,8,8v384c0,4.418-3.582,8-8,8H24c-4.418,0-8-3.582-8-8V88C16,83.582,19.582,80,24,80z" />
    <path fill="#E2E5E7" d="M120,40h368c4.418,0,8,3.582,8,8l0,0c0,4.418-3.582,8-8,8H120c-4.418,0-8-3.582-8-8l0,0C112,43.582,115.582,40,120,40z" />
    <path fill="#ABE1FA" d="M48,128h416c4.418,0,8,3.582,8,8.001v80c0,4.418-3.582,8-8,8H48c-4.418,0-8-3.582-8-8v-80C40,131.582,43.582,128,48,128z" />
    <circle fill="#FDBA4D" cx="256" cy="152.002" r="7.998" />
    <path fill="#595A66" d="M472,216.001v-22.32l-36.24-36.24c-2.809-2.797-7.351-2.797-10.16,0l-66.56,66.56h104.96C468.418,224,472,220.418,472,216.001z" />
    <path fill="#595A66" d="M353.6,172.8L304,224h105.2l-44.8-51.2c-2.63-2.983-7.18-3.267-10.163-0.638C354.012,172.361,353.799,172.575,353.6,172.8z" />
    <path fill="#35363E" d="M403.52,201.12c-4.304-4.906-11.392-6.257-17.2-3.28l22.88,26.16h14.32L403.52,201.12z" />
    <path fill="#595A66" d="M298.08,172.8L248.481,224h105.2l-44.8-51.2c-2.63-2.983-7.18-3.267-10.163-0.638C298.492,172.361,298.279,172.575,298.08,172.8z" />
    <path fill="#35363E" d="M348,201.12c-4.304-4.906-11.392-6.257-17.2-3.28l22.88,26.16h14.32L348,201.12z" />
    <path fill="#6F707E" d="M430.841,165.849L430.841,165.849c1.562,1.562,1.562,4.095,0,5.657l-11.314,11.314 c-1.562,1.562-4.095,1.562-5.657,0l0,0c-1.562-1.562-1.562-4.095,0-5.657l11.314-11.314C426.747,164.288,429.279,164.288,430.841,165.849z" />
    <path fill="#6F707E" d="M303.915,185.181L303.915,185.181c1.562,1.562,1.562,4.095,0,5.657l-11.314,11.314c-1.562,1.562-4.095,1.562-5.657,0l0,0c-1.562-1.562-1.562-4.095,0-5.657l11.314-11.314C299.82,183.618,302.352,183.618,303.915,185.181z" />
    <path fill="#35363E" d="M472,193.68l-5.52-5.52c-1.988-1.988-5.211-1.988-7.2,0s-1.988,5.211,0,7.2l0,0l4.16,4.16c4.011,4.041,6.952,9.018,8.56,14.48v-20.32H472z" />
    <path fill="#CAD1D8" d="M48,392h160c4.418,0,8.001,3.582,8.001,8l0,0c0,4.418-3.582,8-8.001,8H48c-4.418,0-8-3.582-8-8l0,0C40,395.582,43.582,392,48,392z" />
    <path fill="#CAD1D8" d="M288,360h152c4.418,0,8,3.582,8,8l0,0c0,4.418-3.582,8-8,8H288c-4.418,0-8-3.582-8-8l0,0C280,363.582,283.582,360,288,360z" />
    <path fill="#CAD1D8" d="M288,296h176c4.418,0,8,3.582,8,8l0,0c0,4.418-3.582,8-8,8H288c-4.418,0-8-3.582-8-8l0,0C280,299.582,283.582,296,288,296z" />
    <path fill="#CAD1D8" d="M288,328h120c4.418,0,8,3.582,8,8l0,0c0,4.418-3.582,8-8,8H288c-4.418,0-8-3.582-8-8l0,0C280,331.582,283.582,328,288,328z" />
    <path fill="#CAD1D8" d="M288,264h120c4.418,0,8,3.582,8,8l0,0c0,4.418-3.582,8-8,8H288c-4.418,0-8-3.582-8-8l0,0C280,267.582,283.582,264,288,264z" />
    <path fill="#CAD1D8" d="M288,392h144c4.418,0,8,3.582,8,8l0,0c0,4.418-3.582,8-8,8H288c-4.418,0-8-3.582-8-8l0,0C280,395.582,283.582,392,288,392z" />
    <path fill="#CAD1D8" d="M48,424h88.001c4.418,0,8,3.582,8,8l0,0c0,4.418-3.582,8-8,8H48c-4.418,0-8-3.582-8-8l0,0C40,427.582,43.582,424,48,424z" />
    <path fill="#CAD1D8" d="M288,424h56c4.418,0,8,3.582,8,8l0,0c0,4.418-3.582,8-8,8h-56c-4.418,0-8-3.582-8-8l0,0C280,427.582,283.582,424,288,424z" />
    <path fill="#595A66" d="M72,152.001h104c4.418,0,8.001,3.582,8.001,8l0,0c0,4.418-3.582,8.001-8.001,8.001H72c-4.418,0-8-3.582-8-8.001l0,0C64,155.582,67.582,152.001,72,152.001z" />
    <path fill="#595A66" d="M72,184.001h56c4.418,0,8.001,3.582,8.001,8l0,0c0,4.418-3.582,8.001-8.001,8.001H72c-4.418,0-8-3.582-8-8.001l0,0C64,187.582,67.582,184.001,72,184.001z" />
    <path fill="#EE2C39" d="M48,268h144c2.209,0,4,1.791,4,4v80c0,2.209-1.791,4-4,4H48c-2.209,0-4-1.791-4-4v-80C44,269.791,45.791,268,48,268z" />
    <path fill="#CC202C" d="M192,272v80H48v-80H192 M192,264H48c-4.418,0-8,3.582-8,8v80c0,4.418,3.582,8,8,8h144c4.418,0,8.001-3.582,8.001-8v-80C200.001,267.582,196.418,264,192,264L192,264z" />
    <path fill="#CC202C" d="M133.76,316.4l-24.001-12c-1.984-0.972-4.38-0.152-5.352,1.832c-0.27,0.551-0.409,1.155-0.408,1.768v24c-0.004,2.209,1.783,4.004,3.992,4.008c0.613,0.001,1.217-0.138,1.768-0.408l24.001-12c1.988-0.962,2.819-3.356,1.856-5.343C135.225,317.446,134.57,316.792,133.76,316.4z" />
    <path fill="#FFFFFF" d="M133.76,308.4l-24.001-12c-1.984-0.972-4.38-0.152-5.352,1.832c-0.27,0.551-0.409,1.155-0.408,1.768v24c-0.004,2.209,1.783,4.004,3.992,4.008c0.613,0.001,1.217-0.138,1.768-0.408l24.001-12c1.988-0.962,2.819-3.356,1.856-5.343C135.225,309.446,134.57,308.793,133.76,308.4z" />
</svg>