<svg name="maskable" xmlns="http://www.w3.org/2000/svg" viewBox="0 0 1024 1024">
  <g transform="translate(0,1024) scale(0.100000,-0.100000)">
     <!--<path fill="rgba(255, 255, 255, 0.87)" name="square" d="M0 5120 l0 -5120 5120 0 5120 0 0 5120 0 5120 -5120 0 -5120 0 0 -5120z"/> -->
     <path fill="rgba(255, 255, 255, 0.87)" name="squircle" d="M4360 10220 c-1518 -62 -2477 -322 -3143 -853 -317 -252 -583 -602 -762 -1002 -200 -445 -321 -945 -390 -1609 -65 -625 -73 -1727 -19 -2656 121 -2095 560 -3077 1610 -3603 534 -267 1275 -421 2244 -466 113 -6 318 -15 455 -22 218 -10 784 -8 1087 5 37 2 163 6 280 10 997 32 1798 138 2358 313 404 126 764 310 1021 520 497 407 799 1004 964 1905 92 500 136 1016 156 1843 37 1489 -66 2661 -298 3390 -47 147 -51 159 -96 275 -125 320 -277 580 -471 807 -607 709 -1584 1042 -3311 1128 -362 18 -1387 27 -1685 15z"/> 
    <path fill="#ce8400" id="animateTransform" d="M4854 8593 c-136 -203 -258 -384 -271 -403 -26 -39 -28 -73 -12 -167 6 -35 9 -66 7 -68 -2 -2 -73 -22 -158 -44 -286 -73 -589 -200 -812 -340 -53 -34 -101 -61 -106 -61 -6 0 -30 28 -55 63 -25 35 -52 69 -60 75 -24 20 -960 202 -974 190 -7 -6 -13 -20 -13 -32 0 -11 41 -230 91 -484 l92 -464 73 -54 c41 -30 74 -60 74 -66 0 -6 -22 -45 -49 -87 -155 -243 -282 -542 -357 -845 -18 -77 -36 -141 -38 -143 -2 -3 -47 1 -98 8 l-94 12 -407 -272 c-299 -200 -407 -277 -407 -291 0 -14 106 -90 397 -286 219 -147 411 -270 426 -272 16 -3 62 1 104 8 41 6 77 10 79 7 2 -2 22 -73 43 -158 78 -306 188 -564 353 -828 32 -52 55 -97 51 -101 -4 -3 -40 -30 -79 -58 l-71 -51 -92 -468 c-50 -257 -91 -475 -91 -484 1 -42 15 -40 504 56 263 52 478 95 480 95 1 0 26 34 55 75 30 41 59 75 64 75 6 0 42 -20 81 -44 269 -166 541 -282 831 -356 66 -16 128 -30 137 -30 28 0 30 -16 17 -113 l-12 -93 272 -407 c203 -304 276 -407 291 -407 14 0 88 102 291 403 l271 402 -7 75 c-15 146 -31 126 140 170 330 84 632 217 897 393 l26 18 55 -74 c31 -41 61 -78 67 -82 6 -3 223 -49 482 -100 343 -68 476 -91 485 -83 7 6 13 21 13 35 0 13 -41 231 -91 484 l-92 461 -76 56 c-42 31 -78 57 -79 58 -2 2 23 46 57 100 161 257 295 578 362 869 12 55 26 104 30 108 4 5 49 3 101 -4 l94 -12 407 272 c303 202 407 276 407 291 0 14 -102 88 -397 287 l-398 268 -55 0 c-30 0 -79 -4 -107 -8 -41 -7 -54 -6 -57 5 -2 7 -16 65 -31 128 -71 297 -205 612 -372 874 -25 38 -41 72 -36 75 4 4 40 31 79 59 l71 52 92 464 c50 255 91 473 91 484 0 46 -9 45 -471 -47 -244 -48 -460 -91 -479 -95 -30 -5 -44 -18 -89 -81 -30 -41 -58 -75 -63 -75 -4 0 -61 32 -126 71 -266 161 -614 301 -872 349 -36 7 -69 16 -73 20 -5 4 -3 50 4 102 l12 94 -272 407 c-202 304 -276 407 -291 407 -14 0 -83 -94 -266 -367z m-102 -1788 c32 -226 56 -416 55 -423 -1 -8 -41 -26 -89 -42 -49 -15 -125 -46 -171 -69 -45 -23 -87 -41 -92 -41 -9 0 -505 649 -513 671 -9 22 273 171 440 233 107 40 275 87 298 83 12 -2 27 -86 72 -412z m924 385 c141 -38 262 -84 394 -150 141 -71 232 -129 223 -143 -25 -43 -498 -659 -508 -663 -7 -3 -49 13 -94 36 -45 22 -121 54 -169 70 -48 16 -88 35 -90 43 -3 16 107 817 114 829 7 11 7 11 130 -22z m-1997 -1145 c182 -137 331 -254 331 -260 0 -5 -18 -47 -41 -92 -23 -46 -54 -122 -69 -170 -16 -48 -33 -89 -39 -91 -12 -4 -833 108 -840 114 -8 8 47 210 85 311 62 169 211 450 233 441 5 -2 158 -115 340 -253z m3266 198 c55 -87 160 -306 195 -408 43 -124 82 -277 73 -285 -13 -12 -836 -121 -843 -113 -3 4 -19 46 -34 93 -16 47 -48 124 -72 172 l-44 87 338 255 c185 141 340 256 344 256 3 0 23 -26 43 -57z m-1667 -349 c265 -54 489 -247 582 -502 158 -432 -87 -908 -532 -1032 -265 -73 -548 -3 -750 188 -328 310 -331 825 -7 1139 190 183 452 260 707 207z m-1378 -1176 c16 -48 50 -128 75 -177 l45 -90 -338 -255 c-185 -141 -340 -256 -344 -256 -22 0 -169 278 -223 421 -42 110 -99 318 -90 327 8 8 790 121 823 118 20 -1 27 -14 52 -88z m2902 36 c221 -30 406 -59 410 -62 12 -12 -48 -223 -102 -360 -43 -110 -140 -299 -191 -373 l-16 -23 -328 250 c-181 137 -335 254 -342 259 -10 8 -5 25 26 85 21 41 53 116 70 165 17 50 33 96 36 103 2 6 11 12 19 12 8 0 196 -25 418 -56z m-757 -1076 c258 -341 258 -342 236 -357 -72 -50 -257 -145 -369 -189 -136 -55 -352 -117 -363 -104 -11 12 -120 835 -112 842 4 4 51 22 103 39 53 18 127 50 165 71 39 20 73 38 76 39 3 0 122 -153 264 -341z m-1502 295 c39 -20 115 -51 167 -69 54 -18 96 -38 98 -46 4 -22 -108 -822 -117 -831 -9 -9 -163 30 -286 73 -103 36 -323 141 -408 195 -39 25 -55 41 -50 50 30 51 501 664 511 664 7 1 45 -15 85 -36z"/>
    <path fill="#ce8400" d="M4986 5674 c-154 -37 -311 -161 -374 -295 -110 -231 -69 -482 108 -660 101 -102 260 -169 400 -169 204 0 415 130 504 311 62 126 78 244 51 374 -66 313 -381 514 -689 439z"/>
    <!-- <style>#animateTransform{transform-origin:500% 500%;-moz-transform-origin:500% 500%}</style> -->
    <!-- <animateTransform xlink:href="#animateTransform" attributeName="transform" attributeType="XML" type="rotate" from="-0" to="-360" dur="25s" restart="whenNotActive" repeatCount="indefinite"/> -->
  </g>
</svg>
