 <svg name="regular" xmlns="http://www.w3.org/2000/svg" viewBox="0 0 5000.000000 5000.000000">
   <g class="spin" transform="translate(0.000000,5000.000000) scale(0.100000,-0.100000)">
     <path fill="#009579" name="l" d="M8405 39405 c-201 -27 -384 -77 -608 -168 -271 -110 -613 -356 -809 -583 -139 -162 -559 -758 -868 -1234 -1209 -1861 -2128 -3869 -2750 -6010 -458 -1578 -741 -3193 -845 -4830 -27 -429 -36 -682 -42 -1220 -23 -2032 219 -4004 733 -5965 67 -256 192 -699 244 -860 15 -49 50 -157 75 -240 26 -82 81 -249 122 -370 41 -121 87 -258 103 -305 46 -137 232 -631 339 -898 391 -978 915 -2051 1439 -2947 863 -1475 1828 -2776 2991 -4030 359 -387 1033 -1050 1436 -1411 1502 -1346 3143 -2466 4930 -3364 781 -392 1468 -692 2315 -1010 362 -137 961 -337 1355 -453 83 -25 204 -61 270 -80 541 -160 1391 -359 2096 -491 1957 -367 4056 -467 6094 -290 1243 107 2502 325 3730 645 149 39 315 84 370 99 835 238 1501 463 2255 763 1555 617 3048 1414 4445 2370 320 220 701 498 809 590 39 34 -7 5 -264 -168 -842 -567 -1503 -956 -2335 -1374 -911 -458 -1879 -862 -2785 -1161 -184 -61 -466 -149 -595 -186 -82 -23 -204 -58 -270 -77 -251 -74 -1022 -267 -1205 -302 -19 -3 -105 -22 -190 -40 -673 -146 -1739 -300 -2520 -365 -1272 -105 -2700 -83 -3905 61 -1108 131 -1986 295 -2960 550 -422 111 -1042 297 -1340 402 -55 20 -161 57 -235 82 -506 175 -1153 437 -1730 700 -492 224 -1257 617 -1705 877 -740 429 -1534 955 -2130 1412 -71 55 -157 120 -190 145 -224 170 -653 524 -909 751 -66 58 -161 141 -210 184 -578 507 -1420 1369 -1906 1950 -41 49 -106 126 -143 170 -92 108 -407 501 -483 601 -33 44 -110 145 -170 225 -133 176 -346 468 -439 605 -185 270 -242 355 -362 540 -703 1084 -1313 2251 -1795 3435 -589 1450 -1005 2934 -1252 4475 -79 487 -145 1019 -181 1440 -8 99 -17 200 -20 225 -3 25 -14 189 -25 365 -119 1957 54 3954 511 5905 146 622 304 1177 521 1825 557 1668 1364 3319 2343 4795 227 342 332 494 477 688 55 73 126 174 159 225 142 217 273 541 325 800 61 304 55 676 -15 964 -206 842 -905 1469 -1751 1568 -150 18 -408 18 -545 0z" />
     <path fill="#222222" name="r" d="M24260 47430 c-1501 -44 -3021 -244 -4490 -591 -257 -60 -710 -177 -895 -229 -260 -74 -426 -123 -495 -145 -41 -13 -163 -51 -270 -85 -1548 -491 -3058 -1160 -4485 -1988 -737 -427 -1667 -1041 -2153 -1421 -183 -143 -167 -135 158 84 842 567 1503 956 2335 1374 912 459 1883 864 2785 1161 177 58 484 154 605 189 77 22 194 55 260 75 257 75 1024 266 1205 301 19 3 105 22 190 40 673 146 1739 300 2520 365 1272 105 2700 83 3905 -61 945 -112 1685 -241 2495 -434 648 -154 1344 -357 1910 -555 113 -40 234 -82 270 -95 265 -92 799 -303 1135 -448 706 -304 1548 -725 2160 -1079 740 -429 1534 -955 2130 -1412 72 -55 157 -120 190 -145 224 -170 653 -524 909 -751 66 -58 161 -141 210 -184 576 -506 1422 -1371 1906 -1950 41 -49 106 -126 143 -170 92 -108 407 -501 483 -601 33 -44 110 -145 170 -225 1241 -1641 2266 -3559 2959 -5540 556 -1587 934 -3339 1070 -4955 8 -99 17 -200 20 -225 3 -25 14 -189 25 -365 119 -1957 -54 -3954 -511 -5905 -146 -622 -304 -1177 -521 -1825 -557 -1668 -1364 -3319 -2343 -4795 -227 -342 -332 -494 -477 -688 -55 -73 -126 -174 -159 -225 -142 -217 -270 -533 -324 -796 -62 -304 -56 -678 14 -968 206 -842 905 -1469 1751 -1568 323 -38 665 -4 955 95 328 112 561 245 810 463 153 133 235 229 434 505 1524 2115 2655 4433 3381 6932 459 1580 741 3191 845 4830 55 874 59 1900 10 2745 -144 2472 -666 4817 -1584 7112 -391 979 -915 2052 -1439 2948 -861 1473 -1830 2778 -2991 4030 -359 387 -1033 1050 -1436 1411 -1502 1346 -3143 2466 -4930 3364 -1109 557 -2172 990 -3330 1359 -174 55 -258 80 -610 184 -703 208 -1808 453 -2640 586 -824 132 -1768 227 -2600 261 -339 14 -1326 20 -1665 10z" />
     <path fill="#009579" name="s" d="M12905 33363 c-549 -34 -1213 -179 -1720 -376 -914 -355 -1727 -1003 -2262 -1802 -478 -715 -712 -1354 -807 -2200 -48 -431 -51 -1050 -5 -1465 88 -811 289 -1419 677 -2050 430 -699 941 -1208 1628 -1624 658 -398 1424 -645 2305 -743 142 -16 442 -18 3749 -23 2460 -5 3612 -10 3650 -17 434 -84 729 -294 908 -648 239 -472 210 -1185 -65 -1598 -167 -251 -411 -407 -750 -479 l-108 -23 -5775 -5 c-5339 -5 -5778 -6 -5816 -22 -159 -63 -241 -147 -285 -289 -18 -58 -19 -120 -19 -1554 0 -1069 3 -1509 11 -1547 36 -169 177 -302 349 -329 43 -6 2038 -8 5825 -6 6287 3 5797 -1 6186 56 948 141 1774 489 2548 1074 713 539 1225 1273 1544 2212 192 565 270 1075 271 1770 1 668 -73 1190 -244 1720 -202 624 -492 1154 -898 1640 -107 128 -438 455 -562 556 -781 636 -1701 1046 -2690 1198 -383 59 -73 55 -4010 61 -3352 6 -3611 7 -3690 23 -364 74 -613 223 -781 469 -57 83 -126 229 -159 338 -101 330 -97 800 10 1121 64 195 158 348 300 490 178 179 366 266 695 322 40 7 1741 12 5155 16 l5095 6 68 32 c94 45 166 116 208 206 l34 72 0 1555 0 1555 -28 59 c-55 119 -146 199 -266 236 -63 20 -110 20 -5145 18 -2794 -1 -5103 -3 -5131 -5z" />
     <path fill="#222222" name="p" d="M29464 33355 c-686 -63 -1396 -276 -1954 -588 -622 -347 -1110 -801 -1493 -1389 -407 -623 -595 -1187 -679 -2033 -16 -162 -24 -12314 -8 -12420 14 -93 52 -168 119 -236 66 -66 142 -104 231 -119 86 -13 2961 -14 3044 0 170 28 309 160 345 328 8 39 11 1646 11 6055 0 4080 3 6030 10 6087 40 327 170 482 466 557 l109 28 3455 0 c2770 0 3477 -3 3565 -13 684 -81 1198 -440 1481 -1037 119 -252 207 -562 254 -899 18 -127 20 -199 20 -795 0 -361 -5 -721 -11 -800 -42 -598 -281 -1068 -704 -1387 -334 -251 -735 -397 -1275 -464 -57 -7 -1163 -10 -3396 -10 -3254 0 -3312 0 -3367 -19 -155 -54 -261 -178 -287 -338 -13 -78 -13 -2948 0 -3026 28 -175 164 -314 340 -347 72 -14 6800 -13 7005 0 997 67 1963 363 2780 853 430 258 803 544 1102 846 564 569 953 1192 1232 1974 180 504 279 1004 323 1632 18 256 18 1984 0 2185 -61 681 -185 1230 -407 1795 -316 804 -817 1568 -1377 2098 -384 364 -762 630 -1228 866 -678 343 -1341 531 -2150 608 -172 16 -436 17 -3800 19 -2884 1 -3643 -1 -3756 -11z" />
   </g>
 </svg>