<svg name="logo" xmlns="http://www.w3.org/2000/svg" viewBox="0 0 1024 1024">
  <g transform="translate(0,1024) scale(0.100000,-0.100000)">
    <path fill="#ce8400" id="animateTransform" d="M5078 10213 c-9 -10 -170 -250 -359 -533 -227 -341 -344 -526 -347 -547 -2 -17 4 -77 13 -132 17 -104 15 -121 -14 -121 -32 0 -300 -69 -428 -111 -321 -104 -631 -250 -899 -424 l-82 -53 -75 103 c-48 64 -84 105 -99 108 -164 39 -1247 247 -1264 243 -12 -3 -25 -14 -29 -25 -4 -14 93 -524 241 -1258 5 -26 25 -46 110 -108 l104 -76 -39 -58 c-221 -325 -427 -806 -521 -1216 -18 -77 -34 -146 -36 -154 -4 -14 -11 -14 -169 9 l-91 13 -543 -362 c-534 -357 -542 -363 -539 -393 3 -29 40 -56 542 -391 l539 -361 91 12 c50 7 108 15 128 18 28 5 39 3 42 -7 2 -8 20 -84 41 -169 102 -428 288 -853 539 -1232 l18 -27 -105 -77 -105 -77 -126 -638 c-69 -350 -123 -644 -120 -653 3 -9 16 -19 28 -22 28 -7 1253 234 1282 252 12 7 52 56 90 108 l68 96 26 -17 c398 -264 921 -483 1349 -564 l63 -12 -5 -46 c-3 -25 -11 -84 -18 -131 l-12 -86 362 -543 c356 -533 363 -542 393 -539 29 3 56 41 391 542 l361 539 -12 91 c-7 50 -15 109 -18 131 l-6 40 144 34 c435 102 855 279 1207 508 46 30 87 51 91 46 4 -4 39 -51 78 -104 44 -59 80 -99 94 -102 148 -36 1247 -247 1264 -243 12 3 25 13 28 22 4 9 -51 304 -120 655 l-126 639 -104 76 c-57 41 -104 77 -104 79 0 2 31 52 69 112 162 255 315 581 406 864 15 46 49 169 74 272 26 103 49 188 52 189 2 1 60 -7 129 -16 l125 -19 535 359 c294 197 538 363 542 368 28 41 21 46 -524 413 -400 268 -542 358 -568 361 -19 2 -75 -4 -125 -12 -128 -23 -121 -25 -135 47 -78 402 -267 872 -499 1246 -65 104 -81 135 -70 142 8 4 54 39 104 76 86 66 90 70 102 123 46 200 242 1222 237 1234 -3 9 -17 19 -31 22 -24 7 -1241 -230 -1276 -248 -10 -5 -51 -54 -91 -108 l-72 -99 -65 43 c-191 128 -510 289 -742 376 -156 58 -396 129 -537 158 -52 11 -94 24 -94 28 1 5 10 63 19 130 l18 121 -363 542 c-332 496 -364 541 -389 541 -16 0 -35 -8 -43 -17z m-503 -2474 c14 -96 45 -322 70 -504 25 -181 49 -356 54 -388 4 -32 5 -59 2 -61 -3 -2 -40 -13 -81 -25 -84 -25 -245 -94 -331 -141 l-57 -30 -89 117 c-49 65 -161 213 -248 328 -87 116 -201 265 -252 332 -51 68 -93 126 -93 131 0 9 210 133 305 180 100 49 250 111 363 149 104 35 324 93 330 88 2 -2 14 -81 27 -176z m1228 150 c191 -48 378 -115 552 -200 118 -56 319 -171 329 -187 2 -4 -62 -95 -143 -202 -80 -107 -231 -307 -335 -445 -104 -137 -192 -254 -196 -258 -3 -4 -44 12 -91 37 -96 51 -224 103 -319 131 -36 10 -66 20 -68 21 -2 1 8 87 23 191 14 103 46 330 70 503 24 173 47 341 50 373 9 67 7 67 128 36z m-2685 -1477 c202 -153 404 -306 449 -340 l82 -62 -59 -118 c-56 -112 -130 -309 -130 -346 0 -15 -6 -17 -37 -12 -21 3 -155 22 -298 41 -143 20 -339 47 -435 60 -96 14 -213 30 -260 36 -47 6 -90 12 -96 14 -14 4 1 75 52 248 41 139 87 261 156 407 56 121 188 350 200 350 5 0 174 -125 376 -278z m4435 192 c62 -101 154 -284 201 -397 70 -170 168 -499 152 -514 -3 -3 -79 -16 -168 -29 -90 -12 -284 -39 -433 -59 -148 -21 -326 -45 -395 -55 -69 -10 -125 -17 -126 -16 0 0 -17 53 -38 116 -20 63 -64 170 -98 238 -33 67 -59 124 -57 126 11 8 320 242 504 381 116 87 250 190 300 227 49 38 94 67 100 65 5 -2 31 -39 58 -83z m-2257 -448 c611 -108 990 -704 834 -1311 -30 -114 -117 -284 -198 -384 -219 -270 -578 -419 -919 -382 -746 81 -1170 877 -819 1537 211 397 661 617 1102 540z m-1822 -1513 c27 -95 80 -224 132 -322 24 -45 41 -87 38 -92 -3 -5 -76 -62 -162 -127 -86 -65 -227 -172 -312 -237 -85 -64 -215 -163 -289 -218 l-134 -101 -21 27 c-38 47 -154 259 -206 377 -85 190 -197 541 -188 588 3 13 36 21 163 38 233 32 439 60 705 98 129 19 240 34 245 35 6 0 19 -29 29 -66z m3541 36 c121 -16 299 -41 395 -54 96 -14 247 -34 335 -46 88 -12 162 -23 164 -25 8 -7 -53 -235 -96 -359 -61 -176 -141 -350 -230 -503 -41 -70 -78 -131 -83 -136 -5 -4 -82 48 -177 120 -92 70 -231 176 -308 234 -77 58 -204 155 -282 214 -79 60 -143 110 -143 112 0 1 27 58 60 125 33 67 77 173 97 236 20 62 39 113 42 113 3 0 105 -14 226 -31z m-2674 -1082 c104 -53 204 -92 312 -122 l58 -17 -5 -36 c-3 -21 -22 -154 -41 -297 -20 -143 -47 -336 -60 -430 -13 -93 -29 -214 -36 -267 -10 -69 -17 -98 -27 -98 -56 0 -369 97 -522 162 -216 92 -477 239 -463 261 4 7 55 75 113 152 149 197 472 623 521 690 23 30 43 55 44 55 1 0 48 -24 106 -53z m1790 -109 c68 -90 179 -237 248 -328 69 -91 167 -220 218 -287 51 -68 93 -124 93 -126 0 -6 -156 -100 -250 -150 -120 -65 -293 -137 -442 -186 -153 -49 -299 -85 -308 -74 -4 4 -17 82 -29 173 -12 91 -30 228 -41 305 -10 77 -33 241 -50 365 -17 124 -33 237 -36 251 -5 25 -1 27 109 62 62 20 167 63 233 96 65 33 122 60 125 60 4 1 62 -72 130 -161z"/>
    <path fill="#ce8400" d="M4960 5864 c-147 -32 -264 -96 -376 -208 -150 -150 -224 -327 -224 -536 0 -141 37 -272 111 -397 45 -76 170 -200 246 -247 332 -200 751 -128 991 171 202 251 224 597 56 876 -47 76 -171 201 -247 246 -169 100 -374 135 -557 95z"/>
  </g>
</svg>