<svg xmlns="http://www.w3.org/2000/svg" viewBox="0 0 512 512">
    <path fill="#f4b798" d="M265.538,512l-20.186-0.042c-70.732-0.145-127.954-57.603-127.809-128.335l0.274-133.531c0.076-36.787,29.959-66.549,66.747-66.473l143.111,0.294c36.788,0.076,66.549,29.959,66.473,66.747l-0.274,133.531C393.728,454.922,336.271,512.145,265.538,512z" />
    <path fill="#FFA789" d="M346.595,186.652c6.772,10.453,10.708,22.912,10.68,36.295l-0.274,133.531c-0.145,70.732-57.603,127.954-128.335,127.809l-20.186-0.042c-20.349-0.042-39.575-4.835-56.644-13.315c23.331,25.166,56.646,40.952,93.671,41.027l20.186,0.042c70.732,0.145,128.19-57.076,128.335-127.809l0.274-133.531C394.365,220.392,374.222,194.816,346.595,186.652z" />
    <path fill="#FF9376" d="M112.592,393.615l6.16,0.01l-0.964-128.321l-4.932-0.01c-20.564-0.042-37.268,16.593-37.309,37.157	l-0.111,53.854C75.393,376.868,92.028,393.574,112.592,393.615z" />
    <path fill="#FF9376" d="M398.786,394.202l-6.16-0.01l1.492-128.321l4.932,0.01c20.564,0.042,37.199,16.747,37.157,37.309	l-0.111,53.854C436.054,377.609,419.349,394.245,398.786,394.202z" />
    <circle fill="#666" cx="99.4" cy="248.513" r="18.422" />
    <circle fill="#666" cx="108.1" cy="212.725" r="18.422" />
    <circle fill="#666" cx="131.091" cy="183.95" r="18.422" />
    <circle fill="#666" cx="133.461" cy="147.167" r="18.422" />
    <circle fill="#666" cx="166.486" cy="130.833" r="18.422" />
    <circle fill="#666" cx="182.636" cy="97.33" r="18.422" />
    <circle fill="#666" cx="203.465" cy="64.465" r="18.422" />
    <circle fill="#666" cx="240.309" cy="64.538" r="18.422" />
    <circle fill="#666" cx="277.153" cy="64.615" r="18.422" />
    <circle fill="#666" cx="240.469" cy="27.633" r="18.422" />
    <circle fill="#666" cx="277.313" cy="27.709" r="18.422" />
    <circle fill="#666" cx="313.997" cy="64.689" r="18.422" />
    <circle fill="#666" cx="221.825" cy="96.421" r="18.422" />
    <circle fill="#666" cx="258.669" cy="96.494" r="18.422" />
    <circle fill="#666" cx="295.513" cy="96.568" r="18.422" />
    <circle fill="#666" cx="334.617" cy="98.125" r="18.422" />
    <circle fill="#666" cx="203.342" cy="128.389" r="18.422" />
    <circle fill="#666" cx="240.186" cy="128.463" r="18.422" />
    <circle fill="#666" cx="277.03" cy="128.549" r="18.422" />
    <circle fill="#666" cx="313.862" cy="128.622" r="18.422" />
    <circle fill="#666" cx="350.706" cy="131.201" r="18.422" />
    <circle fill="#666" cx="383.718" cy="147.585" r="18.422" />
    <circle fill="#666" cx="164.066" cy="167.665" r="18.422" />
    <circle fill="#666" cx="200.91" cy="165.233" r="18.422" />
    <circle fill="#666" cx="237.754" cy="165.307" r="18.422" />
    <circle fill="#666" cx="274.598" cy="165.38" r="18.422" />
    <circle fill="#666" cx="311.442" cy="165.454" r="18.422" />
    <circle fill="#666" cx="348.286" cy="168.045" r="18.422" />
    <circle fill="#666" cx="381.016" cy="184.416" r="18.422" />
    <circle fill="#666" cx="403.921" cy="213.314" r="18.422" />
    <circle fill="#666" cx="412.579" cy="249.102" r="18.422" />
    <path fill="#333" d="M428.225,226.019c2.08-3.881,3.264-8.311,3.264-13.013c0-13.662-9.969-25.033-23.013-27.239c0.031-0.531,0.05-1.062,0.05-1.6c0-6.391-2.187-12.278-5.843-16.964c5.216-5.029,8.469-12.08,8.469-19.88c0-15.237-12.397-27.633-27.633-27.633c-2.567,0-5.049,0.359-7.409,1.017c-2.79-6.914-8.295-12.447-15.191-15.273c0.668-2.378,1.034-4.881,1.034-7.468c0-13.114-9.185-24.114-21.458-26.929c0.5-2.076,0.771-4.238,0.771-6.465c0-15.237-12.397-27.633-27.633-27.633c-4.287,0-8.35,0.981-11.974,2.731c1.77-3.64,2.763-7.725,2.763-12.037C304.424,12.396,292.027,0,276.791,0c-7.072,0-13.529,2.674-18.422,7.059C253.476,2.674,247.018,0,239.947,0c-15.236,0-27.633,12.396-27.633,27.633c0,4.312,0.995,8.397,2.763,12.037c-3.625-1.75-7.688-2.731-11.974-2.731c-15.236,0-27.633,12.396-27.633,27.633c0,2.055,0.232,4.055,0.66,5.983c-12.258,2.825-21.428,13.819-21.428,26.922c0,2.758,0.411,5.421,1.167,7.936c-6.944,2.83-12.484,8.403-15.271,15.368c-2.337-0.644-4.793-0.995-7.332-0.995c-15.236,0-27.633,12.396-27.633,27.633c0,6.459,2.233,12.402,5.96,17.112c-5.091,5.014-8.254,11.982-8.254,19.675c0,0.534,0.02,1.064,0.049,1.59c-13.028,2.219-22.981,13.582-22.981,27.234c0,4.731,1.197,9.186,3.301,13.085c-7.199,4.994-11.926,13.312-11.926,22.717c0,15.237,12.397,27.633,27.633,27.633s27.633-12.396,27.633-27.633c0-4.731-1.197-9.186-3.301-13.085c7.199-4.994,11.926-13.312,11.926-22.717c0-0.534-0.02-1.064-0.049-1.59c9.556-1.627,17.452-8.176,20.984-16.938c2.329,0.64,4.776,0.987,7.305,0.987c7.768,0,14.793-3.226,19.817-8.404c4.696,3.686,10.606,5.893,17.027,5.893c7.072,0,13.529-2.674,18.422-7.059c4.893,4.386,11.35,7.059,18.422,7.059c7.072,0,13.529-2.674,18.422-7.059c4.893,4.386,11.35,7.059,18.422,7.059s13.529-2.674,18.422-7.059c4.893,4.386,11.35,7.059,18.422,7.059c6.419,0,12.33-2.207,17.027-5.893c5.026,5.178,12.05,8.404,19.817,8.404c2.476,0,4.874-0.333,7.159-0.946c3.552,8.732,11.443,15.249,20.983,16.862c-0.031,0.531-0.05,1.062-0.05,1.6c0,9.436,4.757,17.777,11.995,22.766c-2.08,3.881-3.264,8.311-3.264,13.013c0,15.237,12.397,27.633,27.633,27.633c15.236,0,27.633-12.396,27.633-27.633C440.221,239.348,435.464,231.007,428.225,226.019z M413.068,213.005c0,4.292-2.955,7.898-6.934,8.915c-0.172,0.042-0.345,0.079-0.516,0.123c-0.571,0.111-1.158,0.173-1.761,0.173c-5.08,0-9.211-4.131-9.211-9.211s4.131-9.211,9.211-9.211C408.936,203.794,413.068,207.927,413.068,213.005z M347.117,122.445c1.043-0.41,2.175-0.645,3.361-0.645c5.08,0,9.211,4.131,9.211,9.211c0,5.08-4.131,9.211-9.211,9.211c-5.08,0-9.211-4.131-9.211-9.211c0-3.371,1.826-6.318,4.535-7.923C346.248,122.886,346.686,122.671,347.117,122.445z M267.58,96.488c0,5.08-4.131,9.211-9.211,9.211s-9.211-4.131-9.211-9.211s4.131-9.211,9.211-9.211S267.58,91.41,267.58,96.488z M295.213,105.699c-5.08,0-9.211-4.131-9.211-9.211s4.131-9.211,9.211-9.211s9.211,4.131,9.211,9.211S300.292,105.699,295.213,105.699z M230.736,96.488c0,5.08-4.131,9.211-9.211,9.211s-9.211-4.131-9.211-9.211s4.131-9.211,9.211-9.211S230.736,91.41,230.736,96.488z M212.314,128.5c0,5.08-4.131,9.211-9.211,9.211s-9.211-4.131-9.211-9.211s4.131-9.211,9.211-9.211S212.314,123.421,212.314,128.5z M239.947,119.289c5.08,0,9.211,4.131,9.211,9.211s-4.131,9.211-9.211,9.211s-9.211-4.131-9.211-9.211S234.868,119.289,239.947,119.289z M276.791,119.289c5.08,0,9.211,4.131,9.211,9.211s-4.131,9.211-9.211,9.211s-9.211-4.131-9.211-9.211S271.712,119.289,276.791,119.289z M313.635,119.289c5.08,0,9.211,4.131,9.211,9.211s-4.131,9.211-9.211,9.211c-5.08,0-9.211-4.131-9.211-9.211S308.556,119.289,313.635,119.289z M276.791,73.783c-5.08,0-9.211-4.131-9.211-9.211s4.131-9.211,9.211-9.211s9.211,4.131,9.211,9.211S281.87,73.783,276.791,73.783z M239.947,55.361c5.08,0,9.211,4.131,9.211,9.211s-4.131,9.211-9.211,9.211s-9.211-4.131-9.211-9.211S234.868,55.361,239.947,55.361z M175.47,131.011c0,5.08-4.131,9.211-9.211,9.211s-9.211-4.131-9.211-9.211c0-5.08,4.131-9.211,9.211-9.211S175.47,125.933,175.47,131.011z M392.731,147.322c0,5.08-4.131,9.211-9.211,9.211s-9.211-4.131-9.211-9.211s4.131-9.211,9.211-9.211S392.731,142.242,392.731,147.322z M343.532,97.964c0,3.371-1.826,6.318-4.535,7.923c-0.445,0.204-0.882,0.418-1.313,0.645c-1.043,0.41-2.175,0.645-3.361,0.645c-5.08,0-9.211-4.131-9.211-9.211s4.131-9.211,9.211-9.211C339.402,88.755,343.532,92.885,343.532,97.964z M313.635,55.361c5.08,0,9.211,4.131,9.211,9.211s-4.131,9.211-9.211,9.211c-5.08,0-9.211-4.131-9.211-9.211S308.556,55.361,313.635,55.361z M276.791,18.422c5.08,0,9.211,4.131,9.211,9.211s-4.131,9.211-9.211,9.211s-9.211-4.131-9.211-9.211S271.712,18.422,276.791,18.422z M239.947,18.422c5.08,0,9.211,4.131,9.211,9.211s-4.131,9.211-9.211,9.211s-9.211-4.131-9.211-9.211S234.868,18.422,239.947,18.422z M203.103,55.361c5.08,0,9.211,4.131,9.211,9.211s-4.131,9.211-9.211,9.211s-9.211-4.131-9.211-9.211S198.024,55.361,203.103,55.361z M182.334,88.266c5.08,0,9.211,4.131,9.211,9.211s-4.131,9.211-9.211,9.211s-9.211-4.131-9.211-9.211S177.254,88.266,182.334,88.266z M133.265,138.208c5.08,0,9.211,4.131,9.211,9.211s-4.131,9.211-9.211,9.211s-9.211-4.131-9.211-9.211S128.185,138.208,133.265,138.208z M108.039,203.818c5.08,0,9.211,4.131,9.211,9.211s-4.131,9.211-9.211,9.211c-0.583,0-1.151-0.06-1.703-0.165c-0.214-0.055-0.431-0.101-0.646-0.151c-3.942-1.043-6.86-4.63-6.86-8.895C98.828,207.951,102.959,203.818,108.039,203.818z M99.414,258.042c-5.08,0-9.211-4.131-9.211-9.211s4.131-9.211,9.211-9.211c0.583,0,1.151,0.06,1.703,0.165c0.214,0.055,0.431,0.101,0.646,0.151c3.942,1.043,6.86,4.63,6.86,8.895C108.625,253.91,104.492,258.042,99.414,258.042z M130.971,193.417c-5.08,0-9.211-4.131-9.211-9.211s4.131-9.211,9.211-9.211c3.323,0,6.232,1.775,7.851,4.419c0.231,0.499,0.473,0.992,0.732,1.475c0.4,1.03,0.628,2.147,0.628,3.317C140.182,189.286,136.05,193.417,130.971,193.417z M163.912,177.066c-3.323,0-6.232-1.775-7.851-4.419c-0.231-0.499-0.473-0.992-0.732-1.475c-0.4-1.03-0.628-2.147-0.628-3.317c0-5.08,4.131-9.211,9.211-9.211s9.211,4.131,9.211,9.211S168.991,177.066,163.912,177.066z M200.756,174.555c-5.08,0-9.211-4.131-9.211-9.211s4.131-9.211,9.211-9.211s9.211,4.131,9.211,9.211S205.835,174.555,200.756,174.555z M237.6,174.555c-5.08,0-9.211-4.131-9.211-9.211s4.131-9.211,9.211-9.211s9.211,4.131,9.211,9.211S242.679,174.555,237.6,174.555z M274.444,174.555c-5.08,0-9.211-4.131-9.211-9.211s4.131-9.211,9.211-9.211s9.211,4.131,9.211,9.211S279.523,174.555,274.444,174.555z M311.288,174.555c-5.08,0-9.211-4.131-9.211-9.211s4.131-9.211,9.211-9.211s9.211,4.131,9.211,9.211S316.367,174.555,311.288,174.555z M338.921,167.855c0-5.08,4.131-9.211,9.211-9.211c5.08,0,9.211,4.131,9.211,9.211c0,0.852-0.125,1.674-0.343,2.458c-0.591,1.014-1.124,2.067-1.584,3.159c-1.686,2.181-4.321,3.595-7.284,3.595C343.052,177.066,338.921,172.935,338.921,167.855z M371.683,184.166c0-0.852,0.125-1.674,0.343-2.458c0.591-1.014,1.124-2.067,1.584-3.159c1.686-2.181,4.321-3.595,7.284-3.595c5.08,0,9.211,4.131,9.211,9.211s-4.131,9.211-9.211,9.211C375.815,193.377,371.683,189.245,371.683,184.166z M412.588,257.995c-5.08,0-9.211-4.131-9.211-9.211c0-4.292,2.955-7.898,6.934-8.915c0.172-0.042,0.345-0.079,0.516-0.123c0.571-0.111,1.158-0.173,1.761-0.173c5.08,0,9.211,4.131,9.211,9.211S417.666,257.995,412.588,257.995z" />
    <path fill="#333" d="M189.502,335.905c-2.574,0-5.209-0.195-7.872-0.645c-14.078-2.376-22.975-8.971-27.436-13.237	l-9.503-0.02c-5.087-0.01-9.202-4.142-9.191-9.229c0.011-5.081,4.133-9.193,9.211-9.193c0.006,0,0.012,0,0.02,0l13.509,0.027	c2.982,0.006,5.625,1.248,7.344,3.676c0.603,0.739,6.556,7.689,19.113,9.809c13.439,2.267,27.113-5.893,27.25-5.976	c2.403-1.457,5.373-1.753,8.01-0.774l9,3.345c4.768,1.772,7.197,7.075,5.425,11.843c-1.772,4.769-7.073,7.194-11.844,5.425	l-5.127-1.906C211.852,331.747,201.351,335.905,189.502,335.905z" />
    <path fill="#333" d="M200.614,305.357c-1.764,0-3.544-0.505-5.119-1.56c-3.875-2.595-7.372-5.223-12.143-2.372	c-4.365,2.612-10.022,1.191-12.634-3.175c-2.611-4.366-1.19-10.022,3.176-12.634c6.676-3.994,14.906-4.925,22.308-2.55	c3.58,1.148,6.458,3.356,9.546,5.425c4.226,2.832,5.356,8.553,2.525,12.78C206.498,303.924,203.583,305.356,200.614,305.357	C198.851,305.357,203.583,305.356,200.614,305.357C198.851,305.357,203.583,305.356,200.614,305.357z" />
    <path fill="#333" d="M323.547,336.18c-11.935,0-22.504-4.235-28.085-6.967l-5.135,1.885	c-4.781,1.751-10.068-0.7-11.821-5.474c-1.753-4.776,0.698-10.068,5.474-11.821l9.013-3.307c2.661-0.976,5.626-0.673,8.036,0.824	c0.107,0.065,13.756,8.279,27.196,6.069c12.961-2.132,19.066-9.609,19.121-9.684c1.743-2.329,4.542-3.686,7.395-3.692l13.508,0.028	c5.088,0.011,9.202,4.144,9.191,9.231c-0.011,5.081-4.133,9.191-9.211,9.191c-0.006,0-0.012,0-0.02,0l-9.502-0.02	c-4.478,4.247-13.404,10.805-27.492,13.123C328.62,335.994,326.055,336.18,323.547,336.18z" />
    <path fill="#333" d="M312.392,305.586c-2.983,0-5.91-1.447-7.683-4.118c-2.812-4.238-1.658-9.955,2.582-12.768	c3.097-2.056,5.983-4.252,9.567-5.385c7.413-2.345,15.643-1.382,22.302,2.644c4.354,2.633,5.749,8.295,3.116,12.649	c-2.636,4.354-8.297,5.746-12.649,3.116c-4.748-2.871-8.27-0.249-12.15,2.325C315.91,305.089,314.141,305.586,312.392,305.586z" />
    <path fill="#E35" d="M254.999,282.398c-0.006,0-0.012,0-0.018,0c-2.461-0.005-4.773-0.968-6.508-2.712c-1.737-1.744-2.69-4.059-2.685-6.519s0.968-4.771,2.712-6.508c1.739-1.732,4.045-2.685,6.499-2.685c0.006,0,0.014,0,0.02,0c5.078,0.01,9.201,4.15,9.191,9.229v0.001C264.199,278.278,260.068,282.398,254.999,282.398z" />
    <path fill="#E35" d="M271.791,437.677h-32.81c-19.058,0-34.563-15.334-34.563-34.183c0-5.087,4.123-9.211,9.211-9.211c5.088,0,9.211,4.124,9.211,9.211c0,8.691,7.241,15.761,16.141,15.761h32.81c8.9,0,16.141-7.07,16.141-15.761c0-5.087,4.123-9.211,9.211-9.211s9.211,4.124,9.211,9.211C306.354,422.344,290.849,437.677,271.791,437.677z" />
    <path fill="#E35" d="M237.816,472.475c-2.58,0-5.146-1.078-6.967-3.182c-3.331-3.845-2.911-9.663,0.935-12.992c3.455-2.99,10.833-8.048,21.447-8.326c11.451-0.3,19.532,5.285,22.488,7.699c3.939,3.219,4.524,9.021,1.306,12.961c-3.218,3.94-9.021,4.526-12.962,1.307c-1.362-1.113-5.067-3.684-10.351-3.551c-5.061,0.131-8.59,2.728-9.87,3.838C242.098,471.736,239.951,472.475,237.816,472.475z" />
    
</svg>