<svg name="dynamic-logo" version="1.1" xmlns:xlink="http://www.w3.org/1999/xlink" xmlns="http://www.w3.org/2000/svg" viewBox="250 40 460 460" fill="none">
  <path fill="#0097a7" d="m247.27487 37.2751l465.44882 0l0 465.4488l-465.44882 0z" fill-rule="evenodd" />
  <path fill="#434343" d="m352.43665 97.725975l85.03937 0l-85.03937 86.14173z" fill-rule="evenodd" />
  <path stroke="#0097a7" stroke-width="1.0" stroke-linejoin="round" stroke-linecap="butt" d="m352.43665 97.725975l85.03937 0l-85.03937 86.14173z" fill-rule="evenodd" />
  <path fill="#434343" d="m437.4694 183.86539l-85.03937 0l85.03937 -86.14172z" fill-rule="evenodd" />
  <path stroke="#0097a7" stroke-width="1.0" stroke-linejoin="round" stroke-linecap="butt" d="m437.4694 183.86539l-85.03937 0l85.03937 -86.14172z" fill-rule="evenodd" />
  <path fill="#434343" d="m522.525 97.72173l0 86.14173l-85.03934 -86.14173z" fill-rule="evenodd" />
  <path stroke="#0097a7" stroke-width="1.0" stroke-linejoin="round" stroke-linecap="butt" d="m522.525 97.72173l0 86.14173l-85.03934 -86.14173z" fill-rule="evenodd" />
  <path fill="#434343" d="m437.4761 183.86818l0 -86.14173l85.0394 86.14173z" fill-rule="evenodd" />
  <path stroke="#0097a7" stroke-width="1.0" stroke-linejoin="round" stroke-linecap="butt" d="m437.4761 183.86818l0 -86.14173l85.0394 86.14173z" fill-rule="evenodd" />
  <path fill="#434343" d="m437.4763 183.85847l0 86.14174l-85.03937 -86.14174z" fill-rule="evenodd" />
  <path stroke="#0097a7" stroke-width="1.0" stroke-linejoin="round" stroke-linecap="butt" d="m437.4763 183.85847l0 86.14174l-85.03937 -86.14174z" fill-rule="evenodd" />
  <path fill="#434343" d="m352.42688 270.005l0 -86.14172l85.03937 86.14172z" fill-rule="evenodd" />
  <path stroke="#0097a7" stroke-width="1.0" stroke-linejoin="round" stroke-linecap="butt" d="m352.42688 270.005l0 -86.14172l85.03937 86.14172z" fill-rule="evenodd" />
  <path fill="#434343" d="m437.46625 356.1373l-85.03937 0l85.03937 -86.14172z" fill-rule="evenodd" />
  <path stroke="#0097a7" stroke-width="1.0" stroke-linejoin="round" stroke-linecap="butt" d="m437.46625 356.1373l-85.03937 0l85.03937 -86.14172z" fill-rule="evenodd" />
  <path fill="#434343" d="m352.43646 270.0003l85.03937 0l-85.03937 86.14172z" fill-rule="evenodd" />
  <path stroke="#0097a7" stroke-width="1.0" stroke-linejoin="round" stroke-linecap="butt" d="m352.43646 270.0003l85.03937 0l-85.03937 86.14172z" fill-rule="evenodd" />
  <path fill="#434343" d="m522.5155 442.2745l-85.0394 0l85.0394 -86.14172z" fill-rule="evenodd" />
  <path stroke="#0097a7" stroke-width="1.0" stroke-linejoin="round" stroke-linecap="butt" d="m522.5155 442.2745l-85.0394 0l85.0394 -86.14172z" fill-rule="evenodd" />
  <path fill="#434343" d="m437.4856 356.13702l85.03937 0l-85.03937 86.141754z" fill-rule="evenodd" />
  <path stroke="#0097a7" stroke-width="1.0" stroke-linejoin="round" stroke-linecap="butt" d="m437.4856 356.13702l85.03937 0l-85.03937 86.141754z" fill-rule="evenodd" />
  <path fill="#434343" d="m437.476 356.13232l0 86.14172l-85.03937 -86.14172z" fill-rule="evenodd" />
  <path stroke="#0097a7" stroke-width="1.0" stroke-linejoin="round" stroke-linecap="butt" d="m437.476 356.13232l0 86.14172l-85.03937 -86.14172z" fill-rule="evenodd" />
  <path fill="#434343" d="m352.42706 442.27878l0 -86.141754l85.03937 86.141754z" fill-rule="evenodd" />
  <path stroke="#0097a7" stroke-width="1.0" stroke-linejoin="round" stroke-linecap="butt" d="m352.42706 442.27878l0 -86.141754l85.03937 86.141754z" fill-rule="evenodd" />
  <path fill="#434343" d="m522.525 183.86818l0 -86.14173l85.03937 86.14173z" fill-rule="evenodd" />
  <path stroke="#0097a7" stroke-width="1.0" stroke-linejoin="round" stroke-linecap="butt" d="m522.525 183.86818l0 -86.14173l85.03937 86.14173z" fill-rule="evenodd" />
  <path fill="#595959" d="m607.5742 183.85847l0 86.14174l-85.03943 -86.14174z" fill-rule="evenodd" />
  <path stroke="#0097a7" stroke-width="1.0" stroke-linejoin="round" stroke-linecap="butt" d="m607.5742 183.85847l0 86.14174l-85.03943 -86.14174z" fill-rule="evenodd" />
  <path fill="#595959" d="m522.5248 270.005l0 -86.14172l85.03937 86.14172z" fill-rule="evenodd" />
  <path stroke="#0097a7" stroke-width="1.0" stroke-linejoin="round" stroke-linecap="butt" d="m522.5248 270.005l0 -86.14172l85.03937 86.14172z" fill-rule="evenodd" />
  <path fill="#595959" d="m607.56415 356.1373l-85.03937 0l85.03937 -86.14172z" fill-rule="evenodd" />
  <path stroke="#0097a7" stroke-width="1.0" stroke-linejoin="round" stroke-linecap="butt" d="m607.56415 356.1373l-85.03937 0l85.03937 -86.14172z" fill-rule="evenodd" />
  <path fill="#595959" d="m522.53436 270.0003l85.03937 0l-85.03937 86.14172z" fill-rule="evenodd" />
  <path stroke="#0097a7" stroke-width="1.0" stroke-linejoin="round" stroke-linecap="butt" d="m522.53436 270.0003l85.03937 0l-85.03937 86.14172z" fill-rule="evenodd" />
  <path fill="#434343" d="m522.53394 356.1364l85.03937 0l-85.03937 86.141754z" fill-rule="evenodd" />
  <path stroke="#0097a7" stroke-width="1.0" stroke-linejoin="round" stroke-linecap="butt" d="m522.53394 356.1364l85.03937 0l-85.03937 86.141754z" fill-rule="evenodd" />
</svg>