<svg xmlns="http://www.w3.org/2000/svg" viewBox="0 0 484.336 484.336">
    <polygon name="solder" fill="#F9BDA0" points="459.368,308.576 306.168,254.4 306.168,247.704 183.384,246.224 173.416,254.392 22.592,308.576 0,480.32 30.736,480.32 174.36,480.32 235,480.32 249.336,480.32 309.96,480.32 453.6,480.32 484.336,480.32" />
    <polygon name="hand" fill="#FCCCB9" points="128.944,400.072 23.064,309.496 0,480.32 235,480.32 " />
    <polygon name="neck" fill="#F9BDA0" points="302.504,280.32 181.832,280.32 189.88,184.32 294.456,184.32 	" />
    <polygon name="neck-shadow" fill="#E28F71" points="302.504,283.48 254.944,309.456 181.832,184.32 294.456,184.32 " />
    <path name="head-left" fill="#FCCCB9" d="M323.632,102.696c0,70.872-35.704,135-81.456,135c-45.768,0-81.488-64.128-81.488-135c0-70.88,35.72-98.68,81.488-98.68C287.928,4.016,323.632,31.816,323.632,102.696z" />
    <path name="head-right" fill="#F9BDA0" d="M242.176,4.016c45.752,0,81.456,27.8,81.456,98.68c0,70.872-35.704,135-81.456,135" />
    <polyline name="uttarasangha-1" fill="#d06518" points="2.168,480.32 30.736,480.32 174.36,480.32 235,480.32 249.336,480.32 309.96,480.32 453.6,480.32 484.336,480.32 459.368,308.576 306.168,254.4 306.168,248.32 " />
    <polyline name="uttarasangha-2" fill="#ba5c19" points="34.168,480.32 174.36,480.32 235,480.32 249.336,480.32 309.96,480.32 453.6,480.32 484.336,480.32 459.368,308.576 306.168,254.4 306.168,248.32 " />
    <polyline name="uttarasangha-3" fill="#a04e13" points="178.168,480.32 235,480.32 249.336,480.32 309.96,480.32 453.6,480.32 484.336,480.32 459.368,308.576 306.168,254.4 306.168,248.32 " />
    <polygon name="sanghati-1" fill="#e7a705" points="346.696,268.728 136.328,480.32 174.36,480.32 235,480.32 249.336,480.32 340.768,480.32 439.168,301.432 " />
    <polyline name="sanghati-2" fill="#f4942f" points="178.168,480.32 235,480.32 249.336,480.32 340.768,480.32 439.168,301.432 348.744,269.456" />
</svg>