<svg xmlns="http://www.w3.org/2000/svg" viewBox="0 0 512 512">
    <path fill="#415E72" d="M0,345.336V52.568c0.104-5.144,4.256-9.296,9.4-9.4h443.864c5.144,0.104,9.296,4.256,9.4,9.4v292.8L0,345.336z" />
    <path fill="#CFDCE5" d="M462.664,345.336v37.6c-0.104,5.144-4.256,9.296-9.4,9.4H9.4c-5.152-0.104-9.296-4.256-9.4-9.4 v-37.6H462.664z" />
    <rect x="132.296" y="458.8" fill="#CFDCE5" width="198.08" height="9.4" />
    <polygon fill="#AAC1CE" points="297.12,458.84 165.544,458.84 174.944,392.336 287.72,392.336 " />
    <rect x="18.792" y="61.968" fill="#FFFFFF" width="425.04" height="264.56" />
    <polygon fill="#8BA0AE" points="287.72,392.336 174.944,392.336 169.696,429.448 289.408,404.28 " />
    <path fill="#415E72" d="M488.168,468.832H364.8C351.656,468.8,341,458.144,340.968,445V184.8C341,171.656,351.656,161,364.8,160.968h123.368C501.312,161,511.968,171.656,512,184.8v260.208C511.96,458.152,501.312,468.8,488.168,468.832z" />
    <rect x="352.24" y="185.28" fill="#CFDCE5" width="148.472" height="242.76" />
    <path fill="#CFDCE5" d="M448.744,175.664H418.4c-1.368-0.008-2.472-1.112-2.48-2.48l0,0c0.008-1.368,1.112-2.472,2.48-2.48h30.4c1.368,0.008,2.472,1.112,2.48,2.48l0,0c-0.008,1.376-1.12,2.488-2.496,2.48C448.768,175.664,448.76,175.664,448.744,175.664z" />
    <circle fill="#CFDCE5" cx="404.24" cy="173.168" r="2.48" />
    <path fill="#CFDCE5" d="M426.48,460.16c-6.48,0-11.736-5.256-11.736-11.736c0-6.48,5.256-11.736,11.736-11.736c6.48,0,11.736,5.256,11.736,11.736l0,0C438.208,454.896,432.96,460.144,426.48,460.16z M426.48,439.088c-5.16,0-9.336,4.176-9.336,9.336c0,5.16,4.176,9.336,9.336,9.336s9.336-4.176,9.336-9.336l0,0C435.808,443.264,431.632,439.088,426.48,439.088z" />
</svg>